<svg width="16" height="14" viewBox="0 0 16 14" fill="none" xmlns="http://www.w3.org/2000/svg">
<path d="M14.6667 9.33334C14.6667 11.1743 13.1743 12.6667 11.3333 12.6667C10.7367 12.6667 10.176 12.51 9.69133 12.235C9.17804 11.9441 8.75108 11.5222 8.45396 11.0125C8.15684 10.5028 8.0002 9.92334 8 9.33334C8 8.47734 8.32267 7.69667 8.85267 7.10667C9.16496 6.75799 9.54736 6.47917 9.97484 6.28846C10.4023 6.09776 10.8652 5.99946 11.3333 6C13.1743 6 14.6667 7.49234 14.6667 9.33334Z" stroke="#8C8C8C" stroke-linecap="round" stroke-linejoin="round"/>
<path d="M11.3333 3V6C10.8652 5.99946 10.4023 6.09776 9.97483 6.28846C9.54735 6.47917 9.16496 6.75798 8.85266 7.10667C8.30261 7.71775 7.99879 8.51115 8 9.33333C8.00019 9.92334 8.15684 10.5027 8.45395 11.0125C8.75107 11.5222 9.17804 11.9441 9.69133 12.235C8.80399 12.5033 7.626 12.6667 6.33333 12.6667C3.57199 12.6667 1.33333 11.9203 1.33333 11V3" stroke="#8C8C8C" stroke-linecap="round" stroke-linejoin="round"/>
<path d="M1.33333 8.33301C1.33333 9.25334 3.57199 9.99967 6.33333 9.99967C6.93566 9.99967 7.51333 9.96434 8.04799 9.89901M1.33333 5.66634C1.33333 6.58667 3.57199 7.33301 6.33333 7.33301C7.25199 7.33301 8.11299 7.25034 8.85266 7.10634M12.6667 9.33301H11.3333V7.99967M11.3333 2.99967C11.3333 3.92001 9.09466 4.66634 6.33333 4.66634C3.57199 4.66634 1.33333 3.92001 1.33333 2.99967C1.33333 2.07934 3.57199 1.33301 6.33333 1.33301C9.09466 1.33301 11.3333 2.07934 11.3333 2.99967Z" stroke="#8C8C8C" stroke-linecap="round" stroke-linejoin="round"/>
</svg>
