<svg width="20" height="21" viewBox="0 0 20 21" fill="none" xmlns="http://www.w3.org/2000/svg">
<path fill-rule="evenodd" clip-rule="evenodd" d="M1 10.5C1 5.52931 5.02931 1.5 10 1.5C14.9707 1.5 19 5.52931 19 10.5C19 15.4707 14.9707 19.5 10 19.5C5.02931 19.5 1 15.4707 1 10.5ZM10 3.13636C5.93305 3.13636 2.63636 6.43305 2.63636 10.5C2.63636 14.5669 5.93305 17.8636 10 17.8636C14.0669 17.8636 17.3636 14.5669 17.3636 10.5C17.3636 6.43305 14.0669 3.13636 10 3.13636ZM13.0331 8.28509C13.3526 8.60461 13.3526 9.12266 13.0331 9.44218L9.76036 12.7149C9.44084 13.0344 8.9228 13.0344 8.60328 12.7149L6.96691 11.0785C6.64739 10.759 6.64739 10.241 6.96691 9.92146C7.28643 9.60194 7.80448 9.60194 8.124 9.92146L9.18182 10.9793L11.876 8.28509C12.1955 7.96557 12.7136 7.96557 13.0331 8.28509Z" fill="#37C3A1"/>
</svg>
