<svg width="36" height="36" viewBox="0 0 36 36" fill="none" xmlns="http://www.w3.org/2000/svg">
<rect width="36" height="36" rx="18" fill="#ECEFF1"/>
<path d="M25 17.2863L18.3811 24.1809C17.5703 25.0255 16.4705 25.5 15.3238 25.5C14.177 25.5 13.0773 25.0255 12.2664 24.1809C11.4555 23.3362 11 22.1907 11 20.9962C11 19.8017 11.4555 18.6561 12.2664 17.8115L18.4387 11.3821C18.9793 10.818 19.7129 10.5007 20.478 10.5C21.2432 10.4993 21.9773 10.8152 22.5188 11.3783C23.0604 11.9414 23.365 12.7055 23.3656 13.5026C23.3663 14.2996 23.063 15.0643 22.5224 15.6283L16.3357 22.0577C16.0654 22.3393 15.6988 22.4974 15.3166 22.4974C14.9343 22.4974 14.5677 22.3393 14.2974 22.0577C14.0272 21.7762 13.8753 21.3943 13.8753 20.9962C13.8753 20.598 14.0272 20.2161 14.2974 19.9346L20.4122 13.5727" stroke="black" stroke-linecap="round" stroke-linejoin="round"/>
</svg>
