<svg width="11" height="13" viewBox="0 0 11 13" fill="none" xmlns="http://www.w3.org/2000/svg">
<path d="M9.375 2H8.25V0.78125C8.25 0.640625 8.10938 0.5 7.96875 0.5H7.03125C6.86719 0.5 6.75 0.640625 6.75 0.78125V2H3.75V0.78125C3.75 0.640625 3.60938 0.5 3.46875 0.5H2.53125C2.36719 0.5 2.25 0.640625 2.25 0.78125V2H1.125C0.492188 2 0 2.51562 0 3.125V11.375C0 12.0078 0.492188 12.5 1.125 12.5H9.375C9.98438 12.5 10.5 12.0078 10.5 11.375V3.125C10.5 2.51562 9.98438 2 9.375 2ZM9.23438 11.375H1.26562C1.17188 11.375 1.125 11.3281 1.125 11.2344V4.25H9.375V11.2344C9.375 11.3281 9.30469 11.375 9.23438 11.375Z" fill="#EA3F47"/>
</svg>
