<svg width="20" height="21" viewBox="0 0 20 21" fill="none" xmlns="http://www.w3.org/2000/svg">
<path d="M15.8333 3.83334H4.16667C3.24619 3.83334 2.5 4.57954 2.5 5.50001V17.1667C2.5 18.0872 3.24619 18.8333 4.16667 18.8333H15.8333C16.7538 18.8333 17.5 18.0872 17.5 17.1667V5.50001C17.5 4.57954 16.7538 3.83334 15.8333 3.83334Z" stroke="#121212" stroke-width="1.6" stroke-linecap="round" stroke-linejoin="round"/>
<path d="M13.3333 2.16669V5.50002" stroke="#121212" stroke-width="1.6" stroke-linecap="round" stroke-linejoin="round"/>
<path d="M6.66663 2.16669V5.50002" stroke="#121212" stroke-width="1.6" stroke-linecap="round" stroke-linejoin="round"/>
<path d="M2.5 8.83334H17.5" stroke="#121212" stroke-width="1.6" stroke-linecap="round" stroke-linejoin="round"/>
<rect x="4.79163" y="11.5417" width="2.08333" height="2.08333" fill="#121212"/>
<rect x="8.95825" y="11.5417" width="2.08333" height="2.08333" fill="#121212"/>
<rect x="13.125" y="11.5417" width="2.08333" height="2.08333" fill="#121212"/>
<rect x="4.79163" y="14.6667" width="2.08333" height="2.08333" fill="#121212"/>
<rect x="8.95825" y="14.6667" width="2.08333" height="2.08333" fill="#121212"/>
<rect x="13.125" y="14.6667" width="2.08333" height="2.08333" fill="#121212"/>
</svg>
