<svg width="20" height="9" viewBox="0 0 20 9" fill="none" xmlns="http://www.w3.org/2000/svg">
<path d="M3.99 8.11C5.75 8.11 7.02 7.2 7.2 5.43H5.61C5.48 6.35 4.86 6.8 3.97 6.8C2.79 6.8 2.11 5.94 2.11 4.46V4.38C2.11 2.9 2.83 2.02 3.96 2.02C4.86 2.02 5.34 2.48 5.46 3.34H7.12C6.95 1.58 5.67 0.74 3.95 0.74C1.92 0.74 0.4 2.22 0.4 4.39V4.47C0.4 6.67 1.65 8.11 3.99 8.11ZM10.5605 7.01C9.74047 7.01 9.28047 6.41 9.28047 5.41V5.33C9.28047 4.33 9.76047 3.75 10.5605 3.75C11.3705 3.75 11.8405 4.35 11.8405 5.35V5.42C11.8405 6.41 11.3705 7.01 10.5605 7.01ZM10.5505 8.11C12.1205 8.11 13.3105 7.06 13.3105 5.41V5.33C13.3105 3.7 12.1305 2.65 10.5605 2.65C8.99047 2.65 7.80047 3.72 7.80047 5.36V5.44C7.80047 7.07 8.99047 8.11 10.5505 8.11ZM15.8126 8H17.4426V2.11H19.3726V0.85H13.8826V2.11H15.8126V8Z" fill="#EA3F47"/>
</svg>
