<svg width="32" height="32" viewBox="0 0 32 32" fill="none" xmlns="http://www.w3.org/2000/svg">
<rect width="32" height="32" rx="4" fill="#ECEFF1"/>
<g clip-path="url(#clip0_6117_265977)">
<path fill-rule="evenodd" clip-rule="evenodd" d="M16 10C16.3314 10 16.6 10.2686 16.6 10.6V16.3515L18.5757 14.3757C18.8101 14.1414 19.1899 14.1414 19.4243 14.3757C19.6586 14.6101 19.6586 14.9899 19.4243 15.2243L16.4243 18.2243C16.1899 18.4586 15.8101 18.4586 15.5757 18.2243L12.5757 15.2243C12.3414 14.9899 12.3414 14.6101 12.5757 14.3757C12.8101 14.1414 13.1899 14.1414 13.4243 14.3757L15.4 16.3515V10.6C15.4 10.2686 15.6686 10 16 10ZM10.6 17.2C10.9314 17.2 11.2 17.4686 11.2 17.8V20.2C11.2 20.3591 11.2632 20.5117 11.3757 20.6243C11.4883 20.7368 11.6409 20.8 11.8 20.8H20.2C20.3591 20.8 20.5117 20.7368 20.6243 20.6243C20.7368 20.5117 20.8 20.3591 20.8 20.2V17.8C20.8 17.4686 21.0686 17.2 21.4 17.2C21.7314 17.2 22 17.4686 22 17.8V20.2C22 20.6774 21.8104 21.1352 21.4728 21.4728C21.1352 21.8104 20.6774 22 20.2 22H11.8C11.3226 22 10.8648 21.8104 10.5272 21.4728C10.1896 21.1352 10 20.6774 10 20.2V17.8C10 17.4686 10.2686 17.2 10.6 17.2Z" fill="black"/>
</g>
<defs>
<clipPath id="clip0_6117_265977">
<rect width="12" height="12" fill="white" transform="translate(10 10)"/>
</clipPath>
</defs>
</svg>
