<svg width="32" height="32" viewBox="0 0 32 32" fill="none" xmlns="http://www.w3.org/2000/svg">
<rect x="0.5" y="0.5" width="31" height="31" rx="15.5" fill="white"/>
<path d="M23.3718 10.1593L21.727 8.6251C21.5482 8.4583 21.2622 8.4583 21.0655 8.6251L20.7795 8.90858L19.5638 10.0425L15.0228 14.2615C15.005 14.2781 14.987 14.2949 14.9692 14.3281C14.9513 14.3448 14.9513 14.3615 14.9334 14.3782L14.9156 14.3948L13.6819 17.063C13.6105 17.2298 13.6461 17.4132 13.7714 17.5299C13.8608 17.6133 13.9859 17.6633 14.0931 17.6633C14.1467 17.6633 14.2183 17.6467 14.2719 17.6299L17.1325 16.4793C17.1683 16.4626 17.1861 16.4626 17.2219 16.4459C17.2397 16.4459 17.2397 16.4293 17.2577 16.4125L23.3541 10.726C23.4435 10.6426 23.4971 10.5426 23.4971 10.4259C23.497 10.3426 23.4612 10.2259 23.3718 10.1592L23.3718 10.1593ZM15.0049 16.4294L15.5054 15.3121L16.1848 15.9458L15.0049 16.4294ZM17.0072 15.479L16.006 14.5618L20.2074 10.6429C20.2252 10.6429 20.2252 10.6263 20.2252 10.6263L20.2074 10.6429L21.2085 11.5767L17.0072 15.479ZM21.8521 10.9598L20.851 10.026L21.3873 9.52566L22.3885 10.4595L21.8521 10.9598Z" fill="black"/>
<path d="M14.9426 14.3784L14.9248 14.3951L14.9426 14.3784Z" fill="black"/>
<path d="M20.2522 10.6094L20.2344 10.626L20.2522 10.6094Z" fill="black"/>
<path d="M14.2233 23.4999H12.1495C11.8992 23.4999 11.6847 23.2999 11.6847 23.0664C11.6847 22.8329 11.8992 22.6328 12.1495 22.6328L14.2233 22.6327C14.8491 22.6327 15.3497 22.1658 15.3497 21.5821C15.3497 20.9984 14.8491 20.5315 14.2233 20.5315L10.5583 20.5316C9.432 20.5316 8.50244 19.6812 8.50244 18.614C8.50244 17.5633 9.41419 16.6963 10.5583 16.6963H11.774C12.0243 16.6963 12.2388 16.8964 12.2388 17.1298C12.2388 17.3633 12.0243 17.5634 11.774 17.5634H10.5583C9.93255 17.5634 9.432 18.0303 9.432 18.614C9.432 19.1977 9.93259 19.6646 10.5583 19.6646L14.2233 19.6645C15.3497 19.6645 16.2792 20.5149 16.2792 21.5821C16.2792 22.6495 15.3497 23.4999 14.2233 23.4999V23.4999Z" fill="black"/>
<path d="M20.2522 10.6094L20.2344 10.626L20.2522 10.6094Z" fill="black"/>
<rect x="0.5" y="0.5" width="31" height="31" rx="15.5" stroke="black"/>
</svg>
