<svg width="44" height="44" viewBox="0 0 44 44" fill="none" xmlns="http://www.w3.org/2000/svg">
<rect x="1" y="1" width="42" height="42.0004" rx="21" fill="#393939"/>
<path d="M31.8328 14.2124L29.6397 12.1668C29.4013 11.9444 29.02 11.9444 28.7578 12.1668L28.3763 12.5448L26.7555 14.0567L20.7007 19.6821C20.6769 19.7043 20.653 19.7266 20.6292 19.771C20.6054 19.7931 20.6054 19.8155 20.5815 19.8377L20.5577 19.8598L18.9128 23.4175C18.8176 23.6399 18.8651 23.8845 19.0321 24.0401C19.1513 24.1513 19.3181 24.218 19.461 24.218C19.5325 24.218 19.628 24.1958 19.6995 24.1735L23.5136 22.6392C23.5613 22.617 23.5851 22.617 23.6328 22.5947C23.6566 22.5947 23.6566 22.5725 23.6806 22.5502L31.8092 14.9681C31.9284 14.8569 31.9999 14.7235 31.9999 14.5679C31.9998 14.4569 31.9521 14.3012 31.8328 14.2123L31.8328 14.2124ZM20.6768 22.5727L21.3442 21.083L22.2501 21.928L20.6768 22.5727ZM23.3465 21.3054L22.0117 20.0825L27.6135 14.8573C27.6373 14.8573 27.6373 14.8351 27.6373 14.8351L27.6135 14.8573L28.9484 16.1024L23.3465 21.3054ZM29.8066 15.2798L28.4717 14.0347L29.1869 13.3676L30.5217 14.6127L29.8066 15.2798Z" fill="white"/>
<path d="M20.5824 19.8379L20.5586 19.8601L20.5824 19.8379Z" fill="white"/>
<path d="M27.6615 14.8125L27.6377 14.8347L27.6615 14.8125Z" fill="white"/>
<path d="M19.628 32.0004H16.8628C16.529 32.0004 16.243 31.7336 16.243 31.4223C16.243 31.111 16.529 30.8442 16.8628 30.8442L19.628 30.8441C20.4624 30.8441 21.1298 30.2215 21.1298 29.4433C21.1298 28.665 20.4624 28.0424 19.628 28.0424L14.7413 28.0426C13.2394 28.0426 12 26.9086 12 25.4856C12 24.0848 13.2157 22.9287 14.7413 22.9287H16.3621C16.6959 22.9287 16.9819 23.1955 16.9819 23.5068C16.9819 23.8181 16.6959 24.0848 16.3621 24.0848H14.7413C13.9068 24.0848 13.2394 24.7074 13.2394 25.4857C13.2394 26.2639 13.9069 26.8865 14.7413 26.8865L19.628 26.8864C21.1298 26.8864 22.3692 28.0203 22.3692 29.4433C22.3692 30.8665 21.1298 32.0004 19.628 32.0004V32.0004Z" fill="white"/>
<path d="M27.6615 14.8125L27.6377 14.8347L27.6615 14.8125Z" fill="white"/>
<rect x="1" y="1" width="42" height="42.0004" rx="21" stroke="white" stroke-width="2"/>
</svg>
