<svg width="24" height="24" viewBox="0 0 24 24" fill="none" xmlns="http://www.w3.org/2000/svg">
<path d="M18.75 2.25H6.75C6.35218 2.25 5.97064 2.40804 5.68934 2.68934C5.40804 2.97064 5.25 3.35218 5.25 3.75V6H3.75C3.35218 6 2.97064 6.15804 2.68934 6.43934C2.40804 6.72064 2.25 7.10218 2.25 7.5V16.5C2.25 16.8978 2.40804 17.2794 2.68934 17.5607C2.97064 17.842 3.35218 18 3.75 18H5.25V20.25C5.25 20.6478 5.40804 21.0294 5.68934 21.3107C5.97064 21.592 6.35218 21.75 6.75 21.75H18.75C19.1478 21.75 19.5294 21.592 19.8107 21.3107C20.092 21.0294 20.25 20.6478 20.25 20.25V3.75C20.25 3.35218 20.092 2.97064 19.8107 2.68934C19.5294 2.40804 19.1478 2.25 18.75 2.25ZM6.4875 14.85C6.32837 14.7307 6.22317 14.553 6.19504 14.3561C6.16691 14.1592 6.21815 13.9591 6.3375 13.8L7.6875 12L6.3375 10.2C6.27841 10.1212 6.23541 10.0315 6.21096 9.93614C6.18652 9.84073 6.18111 9.74144 6.19504 9.64393C6.20897 9.54643 6.24196 9.45263 6.29214 9.36788C6.34232 9.28313 6.40871 9.20909 6.4875 9.15C6.56629 9.09091 6.65595 9.04791 6.75136 9.02346C6.84677 8.99902 6.94606 8.99361 7.04357 9.00754C7.14107 9.02147 7.23487 9.05446 7.31962 9.10464C7.40437 9.15482 7.47841 9.22121 7.5375 9.3L8.625 10.7531L9.7125 9.3C9.83185 9.14087 10.0095 9.03567 10.2064 9.00754C10.4033 8.97941 10.6034 9.03065 10.7625 9.15C10.9216 9.26935 11.0268 9.44702 11.055 9.64393C11.0831 9.84085 11.0318 10.0409 10.9125 10.2L9.5625 12L10.9125 13.8C11.0318 13.9591 11.0831 14.1592 11.055 14.3561C11.0268 14.553 10.9216 14.7307 10.7625 14.85C10.6337 14.9493 10.4751 15.0021 10.3125 15C10.1961 15 10.0812 14.9729 9.97709 14.9208C9.87295 14.8687 9.78236 14.7931 9.7125 14.7L8.625 13.2469L7.5375 14.7C7.46764 14.7931 7.37705 14.8687 7.27291 14.9208C7.16877 14.9729 7.05393 15 6.9375 15C6.77489 15.0021 6.61632 14.9493 6.4875 14.85ZM12 20.25H6.75V18H12V20.25ZM12 6H6.75V3.75H12V6ZM18.75 20.25H13.5V18C13.8978 18 14.2794 17.842 14.5607 17.5607C14.842 17.2794 15 16.8978 15 16.5V15.75H18.75V20.25ZM18.75 14.25H15V9.75H18.75V14.25ZM18.75 8.25H15V7.5C15 7.10218 14.842 6.72064 14.5607 6.43934C14.2794 6.15804 13.8978 6 13.5 6V3.75H18.75V8.25Z" fill="black"/>
</svg>
