<svg width="14" height="12" viewBox="0 0 14 12" fill="none" xmlns="http://www.w3.org/2000/svg">
<path d="M13.1713 5.30767C13.4873 5.72101 13.4873 6.27901 13.1713 6.69167C12.176 7.99101 9.788 10.6663 7 10.6663C4.212 10.6663 1.824 7.99101 0.828664 6.69167C0.674919 6.49376 0.591461 6.25029 0.591461 5.99967C0.591461 5.74906 0.674919 5.50559 0.828664 5.30767C1.824 4.00834 4.212 1.33301 7 1.33301C9.788 1.33301 12.176 4.00834 13.1713 5.30767V5.30767Z" stroke="#8C8C8C" stroke-linecap="round" stroke-linejoin="round"/>
<path d="M7 8C8.10457 8 9 7.10457 9 6C9 4.89543 8.10457 4 7 4C5.89543 4 5 4.89543 5 6C5 7.10457 5.89543 8 7 8Z" stroke="#8C8C8C" stroke-linecap="round" stroke-linejoin="round"/>
</svg>
