<svg width="16" height="15" viewBox="0 0 16 15" fill="none" xmlns="http://www.w3.org/2000/svg">
<rect width="15.7573" height="15" rx="7.5" fill="white" fill-opacity="0.38"/>
<path d="M12.4066 7.39681C12.0502 6.47488 11.4314 5.6776 10.6268 5.1035C9.82222 4.5294 8.86703 4.20365 7.87931 4.1665C6.89159 4.20365 5.9364 4.5294 5.1318 5.1035C4.32719 5.6776 3.70845 6.47488 3.35204 7.39681C3.32797 7.46339 3.32797 7.53629 3.35204 7.60287C3.70845 8.52479 4.32719 9.32207 5.1318 9.89617C5.9364 10.4703 6.89159 10.796 7.87931 10.8332C8.86703 10.796 9.82222 10.4703 10.6268 9.89617C11.4314 9.32207 12.0502 8.52479 12.4066 7.60287C12.4307 7.53629 12.4307 7.46339 12.4066 7.39681V7.39681ZM7.87931 10.2271C6.27325 10.2271 4.57628 9.0362 3.96113 7.49984C4.57628 5.96347 6.27325 4.77256 7.87931 4.77256C9.48537 4.77256 11.1823 5.96347 11.7975 7.49984C11.1823 9.0362 9.48537 10.2271 7.87931 10.2271Z" fill="white"/>
<path d="M7.87873 5.68164C7.51913 5.68164 7.1676 5.78828 6.8686 5.98806C6.5696 6.18784 6.33656 6.47181 6.19895 6.80403C6.06133 7.13626 6.02533 7.50184 6.09548 7.85453C6.16564 8.20722 6.3388 8.53119 6.59308 8.78547C6.84736 9.03975 7.17133 9.21291 7.52402 9.28307C7.87671 9.35322 8.24229 9.31722 8.57452 9.1796C8.90675 9.04199 9.19071 8.80895 9.39049 8.50995C9.59028 8.21095 9.69691 7.85942 9.69691 7.49982C9.69691 7.01761 9.50535 6.55515 9.16438 6.21417C8.8234 5.8732 8.36094 5.68164 7.87873 5.68164ZM7.87873 8.71194C7.63899 8.71194 7.40464 8.64085 7.20531 8.50766C7.00598 8.37447 6.85062 8.18517 6.75888 7.96368C6.66713 7.74219 6.64313 7.49848 6.6899 7.26335C6.73667 7.02822 6.85211 6.81224 7.02163 6.64272C7.19115 6.47321 7.40713 6.35776 7.64226 6.31099C7.87738 6.26422 8.1211 6.28823 8.34259 6.37997C8.56407 6.47171 8.75338 6.62707 8.88657 6.8264C9.01976 7.02574 9.09085 7.26009 9.09085 7.49982C9.09085 7.8213 8.96315 8.1296 8.73583 8.35692C8.50851 8.58424 8.2002 8.71194 7.87873 8.71194Z" fill="white"/>
</svg>
