<svg width="12" height="9" viewBox="0 0 12 9" fill="none" xmlns="http://www.w3.org/2000/svg">
<path fill-rule="evenodd" clip-rule="evenodd" d="M1.15184 4.36374C1.19658 4.44952 1.25565 4.5574 1.32944 4.68135C1.52798 5.01491 1.82964 5.45917 2.24057 5.90172C3.06276 6.78715 4.29172 7.63655 6.00005 7.63655C7.70838 7.63655 8.93734 6.78715 9.75953 5.90172C10.1705 5.45917 10.4721 5.01491 10.6707 4.68135C10.7444 4.5574 10.8035 4.44952 10.8483 4.36374C10.8035 4.27796 10.7444 4.17009 10.6707 4.04614C10.4721 3.71257 10.1705 3.26831 9.75953 2.82577C8.93734 1.94034 7.70838 1.09094 6.00005 1.09094C4.29172 1.09094 3.06276 1.94034 2.24057 2.82577C1.82964 3.26831 1.52798 3.71257 1.32944 4.04614C1.25565 4.17009 1.19658 4.27796 1.15184 4.36374ZM11.4547 4.36374C11.9561 4.14887 11.956 4.14865 11.9559 4.14842L11.9551 4.14651L11.9534 4.14276L11.9483 4.13115C11.9441 4.12162 11.9382 4.10853 11.9306 4.09213C11.9155 4.05934 11.8936 4.01324 11.8648 3.95574C11.8074 3.84081 11.7222 3.67984 11.6081 3.48814C11.3805 3.10578 11.0344 2.59547 10.559 2.08344C9.60838 1.05974 8.11 0 6.00005 0C3.8901 0 2.39172 1.05974 1.44114 2.08344C0.965688 2.59547 0.619599 3.10578 0.392002 3.48814C0.277896 3.67984 0.192722 3.84081 0.13526 3.95574C0.106509 4.01324 0.084633 4.05934 0.0694859 4.09213C0.0619106 4.10853 0.0560123 4.12162 0.0517731 4.13115L0.046654 4.14276L0.045022 4.14651L0.044437 4.14787L0.0442022 4.14842C0.0441007 4.14865 0.0440057 4.14887 0.54537 4.36374L0.0442022 4.14842C-0.0146029 4.28563 -0.0147994 4.4414 0.0440057 4.57861L0.54537 4.36374C0.0440057 4.57861 0.0439043 4.57838 0.0440057 4.57861L0.044437 4.57962L0.045022 4.58097L0.046654 4.58473L0.0517731 4.59634C0.0560123 4.60587 0.0619106 4.61896 0.0694859 4.63536C0.084633 4.66815 0.106509 4.71425 0.13526 4.77175C0.192722 4.88668 0.277896 5.04765 0.392002 5.23935C0.619599 5.62171 0.965688 6.13202 1.44114 6.64405C2.39172 7.66775 3.8901 8.72749 6.00005 8.72749C8.11 8.72749 9.60838 7.66775 10.559 6.64405C11.0344 6.13202 11.3805 5.62171 11.6081 5.23935C11.7222 5.04765 11.8074 4.88668 11.8648 4.77175C11.8936 4.71425 11.9155 4.66815 11.9306 4.63536C11.9382 4.61896 11.9441 4.60587 11.9483 4.59634L11.9534 4.58473L11.9551 4.58097L11.9559 4.57907C11.956 4.57884 11.9561 4.57861 11.4547 4.36374ZM11.4547 4.36374L11.9559 4.57907C12.0147 4.44186 12.0147 4.28563 11.9559 4.14842L11.4547 4.36374ZM6.00005 3.27281C5.39754 3.27281 4.90911 3.76124 4.90911 4.36374C4.90911 4.96625 5.39754 5.45468 6.00005 5.45468C6.60256 5.45468 7.09099 4.96625 7.09099 4.36374C7.09099 3.76124 6.60256 3.27281 6.00005 3.27281ZM3.81818 4.36374C3.81818 3.15873 4.79503 2.18187 6.00005 2.18187C7.20506 2.18187 8.18192 3.15873 8.18192 4.36374C8.18192 5.56876 7.20506 6.54562 6.00005 6.54562C4.79503 6.54562 3.81818 5.56876 3.81818 4.36374Z" fill="#37474F"/>
</svg>
