<svg width="18" height="18" viewBox="0 0 18 18" fill="none" xmlns="http://www.w3.org/2000/svg">
<path d="M9.10662 3.98269L9.10655 3.98256L8.41128 2.59202C8.23223 2.2337 7.95687 1.93236 7.6161 1.7218C7.27541 1.5113 6.88281 1.39987 6.48234 1.4C6.48225 1.4 6.48215 1.4 6.48206 1.4L2.77778 1.4C2.2061 1.4 1.65782 1.6271 1.25358 2.03135C0.849331 2.43559 0.622229 2.98387 0.622229 3.55556V14.4444C0.622229 15.0161 0.849332 15.5644 1.25358 15.9687C1.65782 16.3729 2.2061 16.6 2.77778 16.6H15.2222C15.7939 16.6 16.3422 16.3729 16.7464 15.9687C17.1507 15.5644 17.3778 15.0161 17.3778 14.4444V6.66667C17.3778 6.09498 17.1507 5.5467 16.7464 5.14246C16.3422 4.73821 15.7939 4.51111 15.2222 4.51111H9.96136C9.96135 4.51111 9.96135 4.51111 9.96134 4.51111C9.78386 4.5111 9.60988 4.46166 9.45892 4.36833C9.30795 4.275 9.18595 4.14146 9.10662 3.98269Z" fill="#ECEFF1" stroke="#37474F" stroke-width="1.2" stroke-linecap="round" stroke-linejoin="round"/>
</svg>
