<svg width="16" height="16" viewBox="0 0 16 16" fill="none" xmlns="http://www.w3.org/2000/svg">
<path d="M13.6036 2.325C12.1071 0.825 10.1143 0 7.99643 0C3.625 0 0.0678571 3.55714 0.0678571 7.92857C0.0678571 9.325 0.432143 10.6893 1.125 11.8929L0 16L4.20357 14.8964C5.36071 15.5286 6.66429 15.8607 7.99286 15.8607H7.99643C12.3643 15.8607 16 12.3036 16 7.93214C16 5.81429 15.1 3.825 13.6036 2.325ZM7.99643 14.525C6.81071 14.525 5.65 14.2071 4.63929 13.6071L4.4 13.4643L1.90714 14.1179L2.57143 11.6857L2.41429 11.4357C1.75357 10.3857 1.40714 9.175 1.40714 7.92857C1.40714 4.29643 4.36429 1.33929 8 1.33929C9.76071 1.33929 11.4143 2.025 12.6571 3.27143C13.9 4.51786 14.6643 6.17143 14.6607 7.93214C14.6607 11.5679 11.6286 14.525 7.99643 14.525Z" fill="black"/>
</svg>
