<svg width="16" height="16" viewBox="0 0 16 16" fill="none" xmlns="http://www.w3.org/2000/svg">
<path fill-rule="evenodd" clip-rule="evenodd" d="M8 1.52381C4.4233 1.52381 1.52381 4.4233 1.52381 8C1.52381 11.5767 4.4233 14.4762 8 14.4762C11.5767 14.4762 14.4762 11.5767 14.4762 8C14.4762 4.4233 11.5767 1.52381 8 1.52381ZM0 8C0 3.58172 3.58172 0 8 0C12.4183 0 16 3.58172 16 8C16 12.4183 12.4183 16 8 16C3.58172 16 0 12.4183 0 8Z" fill="black"/>
<path fill-rule="evenodd" clip-rule="evenodd" d="M8.75818 8.01322V4.57227H7.23438V8.63314L9.73647 11.1994L10.8275 10.1356L8.75818 8.01322Z" fill="black"/>
</svg>
