<svg width="13" height="10" viewBox="0 0 13 10" fill="none" xmlns="http://www.w3.org/2000/svg">
<path d="M12.4688 1.90625C12.6094 1.90625 12.75 1.78906 12.75 1.625V0.875C12.75 0.734375 12.6094 0.59375 12.4688 0.59375H4.03125C3.86719 0.59375 3.75 0.734375 3.75 0.875V1.625C3.75 1.78906 3.86719 1.90625 4.03125 1.90625H12.4688ZM12.75 5.375V4.625C12.75 4.48438 12.6094 4.34375 12.4688 4.34375H4.03125C3.86719 4.34375 3.75 4.48438 3.75 4.625V5.375C3.75 5.53906 3.86719 5.65625 4.03125 5.65625H12.4688C12.6094 5.65625 12.75 5.53906 12.75 5.375ZM12.75 9.125V8.375C12.75 8.23438 12.6094 8.09375 12.4688 8.09375H4.03125C3.86719 8.09375 3.75 8.23438 3.75 8.375V9.125C3.75 9.28906 3.86719 9.40625 4.03125 9.40625H12.4688C12.6094 9.40625 12.75 9.28906 12.75 9.125ZM2.90625 2V0.5C2.90625 0.359375 2.76562 0.21875 2.625 0.21875H1.125C0.960938 0.21875 0.84375 0.359375 0.84375 0.5V2C0.84375 2.16406 0.960938 2.28125 1.125 2.28125H2.625C2.76562 2.28125 2.90625 2.16406 2.90625 2ZM2.90625 5.75V4.25C2.90625 4.10938 2.76562 3.96875 2.625 3.96875H1.125C0.960938 3.96875 0.84375 4.10938 0.84375 4.25V5.75C0.84375 5.91406 0.960938 6.03125 1.125 6.03125H2.625C2.76562 6.03125 2.90625 5.91406 2.90625 5.75ZM2.90625 9.5V8C2.90625 7.85938 2.76562 7.71875 2.625 7.71875H1.125C0.960938 7.71875 0.84375 7.85938 0.84375 8V9.5C0.84375 9.66406 0.960938 9.78125 1.125 9.78125H2.625C2.76562 9.78125 2.90625 9.66406 2.90625 9.5Z" fill="#B0B0B0"/>
</svg>
