<svg width="32" height="32" viewBox="0 0 32 32" fill="none" xmlns="http://www.w3.org/2000/svg">
<g clip-path="url(#clip0_7060_94902)">
<path fill-rule="evenodd" clip-rule="evenodd" d="M16.5478 9.20007C16.9092 9.20007 17.2023 9.49308 17.2023 9.85453V16.3991C17.2023 16.7606 16.9092 17.0536 16.5478 17.0536C16.1864 17.0536 15.8933 16.7606 15.8933 16.3991V9.85453C15.8933 9.49308 16.1864 9.20007 16.5478 9.20007ZM12.8416 12.4284C13.0972 12.6839 13.0973 13.0983 12.8417 13.3539C12.1097 14.0862 11.6112 15.0191 11.4093 16.0347C11.2075 17.0503 11.3112 18.1029 11.7076 19.0595C12.1039 20.0161 12.775 20.8337 13.6359 21.4089C14.4969 21.9841 15.5091 22.2912 16.5445 22.2912C17.58 22.2912 18.5922 21.9841 19.4531 21.4089C20.3141 20.8337 20.9852 20.0161 21.3815 19.0595C21.7778 18.1029 21.8816 17.0503 21.6797 16.0347C21.4778 15.0191 20.9794 14.0862 20.2473 13.3539C19.9918 13.0983 19.9918 12.6839 20.2475 12.4284C20.5031 12.1728 20.9175 12.1729 21.173 12.4285C22.0881 13.3439 22.7112 14.51 22.9635 15.7795C23.2159 17.049 23.0861 18.3647 22.5907 19.5605C22.0953 20.7562 21.2565 21.7782 20.1803 22.4973C19.1041 23.2163 17.8388 23.6001 16.5445 23.6001C15.2502 23.6001 13.985 23.2163 12.9088 22.4973C11.8326 21.7782 10.9937 20.7562 10.4983 19.5605C10.0029 18.3647 9.87319 17.049 10.1255 15.7795C10.3779 14.51 11.001 13.3439 11.9161 12.4285C12.1716 12.1729 12.586 12.1728 12.8416 12.4284Z" fill="black"/>
</g>
<rect x="0.4" y="0.4" width="31.2" height="31.2" rx="15.6" stroke="black" stroke-width="0.8"/>
<defs>
<clipPath id="clip0_7060_94902">
<rect width="14.4" height="14.4" fill="white" transform="translate(9.20001 9.20007)"/>
</clipPath>
</defs>
</svg>
