<svg width="12" height="11" viewBox="0 0 12 11" fill="none" xmlns="http://www.w3.org/2000/svg">
<path d="M11.7188 2.40625C11.8594 2.40625 12 2.28906 12 2.125V1.375C12 1.23438 11.8594 1.09375 11.7188 1.09375H3.28125C3.11719 1.09375 3 1.23438 3 1.375V2.125C3 2.28906 3.11719 2.40625 3.28125 2.40625H11.7188ZM12 5.875V5.125C12 4.98438 11.8594 4.84375 11.7188 4.84375H3.28125C3.11719 4.84375 3 4.98438 3 5.125V5.875C3 6.03906 3.11719 6.15625 3.28125 6.15625H11.7188C11.8594 6.15625 12 6.03906 12 5.875ZM12 9.625V8.875C12 8.73438 11.8594 8.59375 11.7188 8.59375H3.28125C3.11719 8.59375 3 8.73438 3 8.875V9.625C3 9.78906 3.11719 9.90625 3.28125 9.90625H11.7188C11.8594 9.90625 12 9.78906 12 9.625ZM2.15625 2.5V1C2.15625 0.859375 2.01562 0.71875 1.875 0.71875H0.375C0.210938 0.71875 0.09375 0.859375 0.09375 1V2.5C0.09375 2.66406 0.210938 2.78125 0.375 2.78125H1.875C2.01562 2.78125 2.15625 2.66406 2.15625 2.5ZM2.15625 6.25V4.75C2.15625 4.60938 2.01562 4.46875 1.875 4.46875H0.375C0.210938 4.46875 0.09375 4.60938 0.09375 4.75V6.25C0.09375 6.41406 0.210938 6.53125 0.375 6.53125H1.875C2.01562 6.53125 2.15625 6.41406 2.15625 6.25ZM2.15625 10V8.5C2.15625 8.35938 2.01562 8.21875 1.875 8.21875H0.375C0.210938 8.21875 0.09375 8.35938 0.09375 8.5V10C0.09375 10.1641 0.210938 10.2812 0.375 10.2812H1.875C2.01562 10.2812 2.15625 10.1641 2.15625 10Z" fill="#B0B0B0"/>
</svg>
