<svg width="16" height="19" viewBox="0 0 16 19" fill="none" xmlns="http://www.w3.org/2000/svg">
<path fill-rule="evenodd" clip-rule="evenodd" d="M13 2.5H3C2.73478 2.5 2.48043 2.60536 2.29289 2.79289C2.10536 2.98043 2 3.23478 2 3.5V15.5C2 15.7652 2.10536 16.0196 2.29289 16.2071C2.48043 16.3946 2.73478 16.5 3 16.5H13C13.2652 16.5 13.5196 16.3946 13.7071 16.2071C13.8946 16.0196 14 15.7652 14 15.5V3.5C14 3.23478 13.8946 2.98043 13.7071 2.79289C13.5196 2.60536 13.2652 2.5 13 2.5ZM3 0.5C2.20435 0.5 1.44129 0.816071 0.87868 1.37868C0.316071 1.94129 0 2.70435 0 3.5V15.5C0 16.2956 0.316071 17.0587 0.87868 17.6213C1.44129 18.1839 2.20435 18.5 3 18.5H13C13.7956 18.5 14.5587 18.1839 15.1213 17.6213C15.6839 17.0587 16 16.2956 16 15.5V3.5C16 2.70435 15.6839 1.94129 15.1213 1.37868C14.5587 0.816071 13.7956 0.5 13 0.5H3Z" fill="#393939"/>
<path d="M4 4.5H12V6.5H4V4.5ZM4 8.5H12V10.5H4V8.5ZM4 12.5H9V14.5H4V12.5Z" fill="#393939"/>
</svg>
