<svg width="223" height="218" viewBox="0 0 223 218" fill="none" xmlns="http://www.w3.org/2000/svg">
<path d="M134.729 18.1667H55.7498C50.8212 18.1667 46.0945 20.0807 42.6094 23.4876C39.1244 26.8945 37.1665 31.5153 37.1665 36.3334V181.667C37.1665 186.485 39.1244 191.106 42.6094 194.512C46.0945 197.919 50.8212 199.833 55.7498 199.833H167.25C172.178 199.833 176.905 197.919 180.39 194.512C183.875 191.106 185.833 186.485 185.833 181.667V68.125L134.729 18.1667Z" fill="#CCD6DE" stroke="#B0B0B0" stroke-width="2" stroke-linecap="round" stroke-linejoin="round"/>
<path d="M130.083 18.1667V72.6667H185.833" stroke="black" stroke-width="2" stroke-linecap="round" stroke-linejoin="round"/>
<path d="M148.667 118.083H74.3335" stroke="black" stroke-width="2" stroke-linecap="round" stroke-linejoin="round"/>
<path d="M148.667 154.417H74.3335" stroke="black" stroke-width="2" stroke-linecap="round" stroke-linejoin="round"/>
<path d="M92.9168 81.75H74.3335" stroke="black" stroke-width="2" stroke-linecap="round" stroke-linejoin="round"/>
<g clip-path="url(#clip0_6376_101529)">
<g filter="url(#filter0_d_6376_101529)">
<path d="M108.912 141.118L184 65.3529L157.882 39L82.7941 114.765L73 151L108.912 141.118Z" fill="#FFCC4E"/>
<path d="M108.912 141.118L184 65.3529L157.882 39L82.7941 114.765L73 151L108.912 141.118Z" stroke="#B0B0B0" stroke-width="2" stroke-linecap="round" stroke-linejoin="round"/>
</g>
<path d="M91 107.5L115.5 133L108.5 140L106.5 141L100 142.5L90.0001 145.5L77.6625 150.019L72.1814 150.69L83.5 115L91 107.5Z" fill="#D99E82"/>
<path d="M90.2234 146.352C84.2 147.352 72.0325 152.466 71.5 151.5C72.317 149.692 74.9981 135.359 77.9996 132.205C81.0012 129.052 83.811 128.778 87.4112 132.205C91.0115 135.632 93.225 143.199 90.2234 146.352Z" fill="#2A2F35"/>
<path d="M167.445 28.4533C172.149 23.7847 179.747 23.8133 184.415 28.5172L193.666 37.8384C198.335 42.5423 198.306 50.1402 193.602 54.8088L193.158 55.2502L167 28.8947L167.445 28.4533Z" fill="#EA5A72"/>
<path d="M166.962 29L193.079 55.3143L184.117 64.2089L158 37.8947L166.962 29Z" fill="#CCD6DE"/>
<line x1="160.432" y1="35.306" x2="186.432" y2="61.306" stroke="#9AAAB5" stroke-width="3"/>
<line x1="164.432" y1="31.306" x2="190.432" y2="57.306" stroke="#9AAAB5" stroke-width="3"/>
</g>
<defs>
<filter id="filter0_d_6376_101529" x="72" y="38" width="113" height="126" filterUnits="userSpaceOnUse" color-interpolation-filters="sRGB">
<feFlood flood-opacity="0" result="BackgroundImageFix"/>
<feColorMatrix in="SourceAlpha" type="matrix" values="0 0 0 0 0 0 0 0 0 0 0 0 0 0 0 0 0 0 127 0" result="hardAlpha"/>
<feOffset dy="12"/>
<feComposite in2="hardAlpha" operator="out"/>
<feColorMatrix type="matrix" values="0 0 0 0 0 0 0 0 0 0 0 0 0 0 0 0 0 0 0.25 0"/>
<feBlend mode="normal" in2="BackgroundImageFix" result="effect1_dropShadow_6376_101529"/>
<feBlend mode="normal" in="SourceGraphic" in2="effect1_dropShadow_6376_101529" result="shape"/>
</filter>
<clipPath id="clip0_6376_101529">
<rect width="150" height="152" fill="white" transform="translate(60 12)"/>
</clipPath>
</defs>
</svg>
