<svg width="16" height="16" viewBox="0 0 16 16" fill="none" xmlns="http://www.w3.org/2000/svg">
<mask id="path-1-inside-1_4418_222756" fill="white">
<path d="M5.83961 10.2148C5.83961 10.6005 5.72942 10.931 5.45395 11.1514C5.17848 11.3718 4.84792 11.482 4.40717 11.482H3.91133V12.7491H3.14001V8.89258H4.40717C4.84792 8.89258 5.23358 9.00277 5.45395 9.22314C5.67433 9.44352 5.83961 9.77408 5.83961 10.2148ZM5.0683 10.2148C5.0683 10.0495 5.0132 9.88427 4.90301 9.77408C4.79283 9.66389 4.62755 9.6088 4.40717 9.6088H3.91133V10.876H4.40717C4.62755 10.876 4.79283 10.8209 4.90301 10.7107C5.0132 10.5454 5.0683 10.3801 5.0683 10.2148Z"/>
</mask>
<path d="M3.91133 11.482V4.48198H-3.08867V11.482H3.91133ZM3.91133 12.7491V19.7491H10.9113V12.7491H3.91133ZM3.14001 12.7491H-3.85999V19.7491H3.14001V12.7491ZM3.14001 8.89258V1.89258H-3.85999V8.89258H3.14001ZM3.91133 9.6088V2.6088H-3.08867V9.6088H3.91133ZM3.91133 10.876H-3.08867V17.876H3.91133V10.876ZM4.90301 10.7107L9.85276 15.6604L10.3429 15.1703L10.7274 14.5936L4.90301 10.7107ZM-1.16039 10.2148C-1.16039 9.31097 -0.862824 7.24047 1.08109 5.68534L9.82682 16.6175C12.3217 14.6216 12.8396 11.89 12.8396 10.2148H-1.16039ZM1.08109 5.68534C1.59249 5.27621 2.19633 4.94446 2.85911 4.73237C3.49847 4.52778 4.04363 4.48198 4.40717 4.48198V18.482C6.15301 18.482 8.10492 17.995 9.82682 16.6175L1.08109 5.68534ZM4.40717 4.48198H3.91133V18.482H4.40717V4.48198ZM-3.08867 11.482V12.7491H10.9113V11.482H-3.08867ZM3.91133 5.74914H3.14001V19.7491H3.91133V5.74914ZM10.14 12.7491V8.89258H-3.85999V12.7491H10.14ZM3.14001 15.8926H4.40717V1.89258H3.14001V15.8926ZM4.40717 15.8926C4.07297 15.8926 3.5668 15.854 2.9546 15.6657C2.36455 15.4841 1.41009 15.0788 0.504204 14.1729L10.4037 4.27339C8.27511 2.14481 5.64607 1.89258 4.40717 1.89258V15.8926ZM0.504204 14.1729C-0.573194 13.0955 -1.16039 11.6517 -1.16039 10.2148H12.8396C12.8396 7.89648 11.9218 5.79154 10.4037 4.27339L0.504204 14.1729ZM12.0683 10.2148C12.0683 8.66019 11.5728 6.54433 9.85276 4.82433L-0.0467335 14.7238C-1.54636 13.2242 -1.9317 11.4389 -1.9317 10.2148H12.0683ZM9.85276 4.82433C7.96682 2.93838 5.70656 2.6088 4.40717 2.6088V16.6088C3.54853 16.6088 1.61884 16.3894 -0.0467335 14.7238L9.85276 4.82433ZM4.40717 2.6088H3.91133V16.6088H4.40717V2.6088ZM-3.08867 9.6088V10.876H10.9113V9.6088H-3.08867ZM3.91133 17.876H4.40717V3.87595H3.91133V17.876ZM4.40717 17.876C5.70656 17.876 7.96682 17.5464 9.85276 15.6604L-0.0467335 5.76092C1.61884 4.09535 3.54853 3.87595 4.40717 3.87595V17.876ZM10.7274 14.5936C11.4472 13.5139 12.0683 12.0203 12.0683 10.2148H-1.9317C-1.9317 8.73996 -1.42077 7.57692 -0.921338 6.82777L10.7274 14.5936Z" fill="#8C8C8C" mask="url(#path-1-inside-1_4418_222756)"/>
<mask id="path-3-inside-2_4418_222756" fill="white">
<path d="M9.75167 10.8209C9.75167 11.482 9.58639 11.9227 9.25583 12.2533C8.92526 12.5839 8.42942 12.7491 7.76829 12.7491H6.44604V8.89258H7.76829C8.37433 8.89258 8.81508 9.05786 9.20073 9.38842C9.58639 9.77408 9.75167 10.2148 9.75167 10.8209ZM8.98036 10.8209C8.98036 10.4352 8.87017 10.1597 8.64979 9.93936C8.42942 9.71898 8.15395 9.6088 7.76829 9.6088H7.10717V12.1431H7.65811C8.5947 12.088 8.98036 11.7024 8.98036 10.8209Z"/>
</mask>
<path d="M6.44604 12.7491H-0.553955V19.7491H6.44604V12.7491ZM6.44604 8.89258V1.89258H-0.553955V8.89258H6.44604ZM9.20073 9.38842L14.1505 4.43867L13.9604 4.24858L13.7563 4.07363L9.20073 9.38842ZM7.10717 9.6088V2.6088H0.10717V9.6088H7.10717ZM7.10717 12.1431H0.10717V19.1431H7.10717V12.1431ZM7.65811 12.1431V19.1431H7.86381L8.06916 19.131L7.65811 12.1431ZM2.75167 10.8209C2.75167 10.5856 2.77886 10.0337 3.02678 9.3313C3.2951 8.57104 3.73884 7.87079 4.30608 7.30355L14.2056 17.203C16.2056 15.203 16.7517 12.7645 16.7517 10.8209H2.75167ZM4.30608 7.30355C5.75127 5.85835 7.35041 5.74914 7.76829 5.74914V19.7491C9.50843 19.7491 12.0993 19.3094 14.2056 17.203L4.30608 7.30355ZM7.76829 5.74914H6.44604V19.7491H7.76829V5.74914ZM13.446 12.7491V8.89258H-0.553955V12.7491H13.446ZM6.44604 15.8926H7.76829V1.89258H6.44604V15.8926ZM7.76829 15.8926C7.42645 15.8926 6.88005 15.8443 6.23741 15.6175C5.57628 15.3841 5.04061 15.0422 4.64519 14.7032L13.7563 4.07363C11.9907 2.56031 9.8928 1.89258 7.76829 1.89258V15.8926ZM4.25098 14.3382C3.82275 13.9099 3.38029 13.3009 3.08246 12.522C2.79768 11.7772 2.75167 11.1547 2.75167 10.8209H16.7517C16.7517 8.64529 16.0388 6.32697 14.1505 4.43867L4.25098 14.3382ZM15.9804 10.8209C15.9804 8.87885 15.3307 6.72076 13.5995 4.98961L3.70005 14.8891C3.16011 14.3492 2.67584 13.6489 2.3563 12.8101C2.04882 12.003 1.98036 11.2951 1.98036 10.8209H15.9804ZM13.5995 4.98961C11.8684 3.25846 9.71031 2.6088 7.76829 2.6088V16.6088C7.294 16.6088 6.58619 16.5403 5.77906 16.2329C4.94026 15.9133 4.23998 15.429 3.70005 14.8891L13.5995 4.98961ZM7.76829 2.6088H7.10717V16.6088H7.76829V2.6088ZM0.10717 9.6088V12.1431H14.1072V9.6088H0.10717ZM7.10717 19.1431H7.65811V5.14311H7.10717V19.1431ZM8.06916 19.131C9.23306 19.0626 11.629 18.7328 13.6202 16.7416C15.7023 14.6595 15.9804 12.1472 15.9804 10.8209H1.98036C1.98036 10.3761 2.06554 8.4973 3.72071 6.84214C5.28493 5.27791 7.01975 5.16856 7.24705 5.15519L8.06916 19.131Z" fill="#8C8C8C" mask="url(#path-3-inside-2_4418_222756)"/>
<mask id="path-5-inside-3_4418_222756" fill="white">
<path d="M12.8368 8.89258V9.5537H11.184V10.4352H12.7817V11.0963H11.184V12.7491H10.4678V8.89258H12.8368Z"/>
</mask>
<path d="M12.8368 8.89258H19.8368V1.89258H12.8368V8.89258ZM12.8368 9.5537V16.5537H19.8368V9.5537H12.8368ZM11.184 9.5537V2.5537H4.18399V9.5537H11.184ZM11.184 10.4352H4.18399V17.4352H11.184V10.4352ZM12.7817 10.4352H19.7817V3.4352H12.7817V10.4352ZM12.7817 11.0963V18.0963H19.7817V11.0963H12.7817ZM11.184 11.0963V4.09633H4.18399V11.0963H11.184ZM11.184 12.7491V19.7491H18.184V12.7491H11.184ZM10.4678 12.7491H3.46777V19.7491H10.4678V12.7491ZM10.4678 8.89258V1.89258H3.46777V8.89258H10.4678ZM5.8368 8.89258V9.5537H19.8368V8.89258H5.8368ZM12.8368 2.5537H11.184V16.5537H12.8368V2.5537ZM4.18399 9.5537V10.4352H18.184V9.5537H4.18399ZM11.184 17.4352H12.7817V3.4352H11.184V17.4352ZM5.78171 10.4352V11.0963H19.7817V10.4352H5.78171ZM12.7817 4.09633H11.184V18.0963H12.7817V4.09633ZM4.18399 11.0963V12.7491H18.184V11.0963H4.18399ZM11.184 5.74914H10.4678V19.7491H11.184V5.74914ZM17.4678 12.7491V8.89258H3.46777V12.7491H17.4678ZM10.4678 15.8926H12.8368V1.89258H10.4678V15.8926Z" fill="#8C8C8C" mask="url(#path-5-inside-3_4418_222756)"/>
<mask id="path-7-inside-4_4418_222756" fill="white">
<path d="M13.4976 8.45278H2.47884C2.31356 8.45278 2.20337 8.34259 2.20337 8.17731V0.298906C2.20337 0.133625 2.31356 0.0234375 2.47884 0.0234375H9.09009C9.14518 0.0234375 9.25537 0.0785312 9.31046 0.0785312L13.718 4.54112C13.7731 4.59622 13.7731 4.65131 13.7731 4.7615V8.17731C13.7731 8.2875 13.6629 8.45278 13.4976 8.45278ZM2.75431 7.90184H13.2221V4.87168L8.9799 0.574375H2.75431V7.90184Z"/>
</mask>
<path d="M9.31046 0.0785312L14.2909 -4.84038L12.2355 -6.92147H9.31046V0.0785312ZM13.718 4.54112L8.73756 9.46003L8.75284 9.4755L8.76821 9.49087L13.718 4.54112ZM2.75431 7.90184H-4.24569V14.9018H2.75431V7.90184ZM13.2221 7.90184V14.9018H20.2221V7.90184H13.2221ZM13.2221 4.87168H20.2221V1.99861L18.2037 -0.0460266L13.2221 4.87168ZM8.9799 0.574375L13.9615 -4.34334L11.9059 -6.42563H8.9799V0.574375ZM2.75431 0.574375V-6.42563H-4.24569V0.574375H2.75431ZM13.4976 1.45278H2.47884V15.4528H13.4976V1.45278ZM2.47884 1.45278C3.98693 1.45278 5.78762 1.98603 7.22887 3.42728C8.67012 4.86852 9.20337 6.66921 9.20337 8.17731H-4.79663C-4.79663 9.85068 -4.20829 11.7891 -2.67062 13.3268C-1.13296 14.8644 0.805463 15.4528 2.47884 15.4528V1.45278ZM9.20337 8.17731V0.298906H-4.79663V8.17731H9.20337ZM9.20337 0.298906C9.20337 1.807 8.67012 3.60769 7.22887 5.04894C5.78762 6.49019 3.98693 7.02344 2.47884 7.02344V-6.97656C0.805463 -6.97656 -1.13296 -6.38822 -2.67062 -4.85056C-4.20829 -3.31289 -4.79663 -1.37447 -4.79663 0.298906H9.20337ZM2.47884 7.02344H9.09009V-6.97656H2.47884V7.02344ZM9.09009 7.02344C8.80705 7.02344 8.56314 7.00604 8.37077 6.98586C8.17676 6.96551 8.00964 6.93961 7.87646 6.9157C7.74231 6.89162 7.62673 6.8667 7.53426 6.84511C7.44124 6.82339 7.36144 6.80264 7.29819 6.78539C7.17628 6.75214 7.08317 6.72287 7.04122 6.70948C7.0012 6.69671 6.96845 6.68569 6.98668 6.69177C6.98911 6.69258 7.04252 6.71048 7.10277 6.72971C7.16495 6.74956 7.27786 6.78486 7.41871 6.82327C7.49142 6.8431 7.58048 6.86621 7.68249 6.89003C7.78394 6.91373 7.90824 6.94048 8.05078 6.96606C8.19235 6.99147 8.36755 7.01856 8.56925 7.03972C8.76931 7.0607 9.02053 7.07853 9.31046 7.07853V-6.92147C9.5935 -6.92147 9.83741 -6.90407 10.0298 -6.88389C10.2238 -6.86354 10.3909 -6.83764 10.5241 -6.81373C10.6582 -6.78966 10.7738 -6.76473 10.8663 -6.74314C10.9593 -6.72142 11.0391 -6.70067 11.1024 -6.68342C11.2243 -6.65017 11.3174 -6.6209 11.3593 -6.60752C11.3993 -6.59474 11.4321 -6.58372 11.4139 -6.5898C11.4114 -6.59061 11.358 -6.60852 11.2978 -6.62775C11.2356 -6.64759 11.1227 -6.68289 10.9818 -6.7213C10.9091 -6.74113 10.8201 -6.76424 10.7181 -6.78807C10.6166 -6.81176 10.4923 -6.83851 10.3498 -6.86409C10.2082 -6.8895 10.033 -6.91659 9.83129 -6.93775C9.63124 -6.95873 9.38001 -6.97656 9.09009 -6.97656V7.02344ZM4.33007 4.99744L8.73756 9.46003L18.6984 -0.377786L14.2909 -4.84038L4.33007 4.99744ZM8.76821 9.49087C8.35617 9.07883 7.92394 8.53974 7.56329 7.85852C7.20284 7.17766 7.00786 6.53224 6.9021 6.00346C6.80433 5.5146 6.78415 5.12727 6.77778 4.9681C6.77192 4.82145 6.77305 4.69427 6.77305 4.7615H20.7731C20.7731 4.75477 20.7731 4.7096 20.7727 4.66071C20.7722 4.60931 20.771 4.51897 20.7666 4.40855C20.7585 4.20634 20.7349 3.78113 20.6302 3.25784C20.361 1.91159 19.7032 0.626909 18.6677 -0.408625L8.76821 9.49087ZM6.77305 4.7615V8.17731H20.7731V4.7615H6.77305ZM6.77305 8.17731C6.77305 6.2008 7.60408 4.68989 8.42926 3.74683C9.37029 2.67137 11.0971 1.45278 13.4976 1.45278V15.4528C16.0633 15.4528 17.9279 14.1515 18.9653 12.9659C19.8869 11.9126 20.7731 10.264 20.7731 8.17731H6.77305ZM2.75431 14.9018H13.2221V0.90184H2.75431V14.9018ZM20.2221 7.90184V4.87168H6.22211V7.90184H20.2221ZM18.2037 -0.0460266L13.9615 -4.34334L3.99832 5.49209L8.24054 9.7894L18.2037 -0.0460266ZM8.9799 -6.42563H2.75431V7.57437H8.9799V-6.42563ZM-4.24569 0.574375V7.90184H9.75431V0.574375H-4.24569Z" fill="#8C8C8C" mask="url(#path-7-inside-4_4418_222756)"/>
<mask id="path-9-inside-5_4418_222756" fill="white">
<path d="M13.4976 15.9998H2.47884C2.31356 15.9998 2.20337 15.8896 2.20337 15.7243V13.5206C2.20337 13.3553 2.31356 13.2451 2.47884 13.2451H13.4976C13.6629 13.2451 13.7731 13.3553 13.7731 13.5206V15.7243C13.7731 15.8896 13.6629 15.9998 13.4976 15.9998ZM2.75431 15.4489H13.2221V13.7961H2.75431V15.4489Z"/>
</mask>
<path d="M2.75431 15.4489H-4.24569V22.4489H2.75431V15.4489ZM13.2221 15.4489V22.4489H20.2221V15.4489H13.2221ZM13.2221 13.7961H20.2221V6.79605H13.2221V13.7961ZM2.75431 13.7961V6.79605H-4.24569V13.7961H2.75431ZM13.4976 8.9998H2.47884V22.9998H13.4976V8.9998ZM2.47884 8.9998C3.98693 8.9998 5.78762 9.53305 7.22887 10.9743C8.67012 12.4155 9.20337 14.2162 9.20337 15.7243H-4.79663C-4.79663 17.3977 -4.20829 19.3361 -2.67062 20.8738C-1.13296 22.4115 0.805463 22.9998 2.47884 22.9998V8.9998ZM9.20337 15.7243V13.5206H-4.79663V15.7243H9.20337ZM9.20337 13.5206C9.20337 15.0287 8.67012 16.8294 7.22887 18.2706C5.78762 19.7119 3.98693 20.2451 2.47884 20.2451V6.24512C0.805463 6.24512 -1.13296 6.83346 -2.67062 8.37112C-4.20829 9.90878 -4.79663 11.8472 -4.79663 13.5206H9.20337ZM2.47884 20.2451H13.4976V6.24512H2.47884V20.2451ZM13.4976 20.2451C11.9895 20.2451 10.1888 19.7119 8.74755 18.2706C7.3063 16.8294 6.77305 15.0287 6.77305 13.5206H20.7731C20.7731 11.8472 20.1847 9.90878 18.647 8.37112C17.1094 6.83346 15.171 6.24512 13.4976 6.24512V20.2451ZM6.77305 13.5206V15.7243H20.7731V13.5206H6.77305ZM6.77305 15.7243C6.77305 14.2162 7.3063 12.4155 8.74755 10.9743C10.1888 9.53305 11.9895 8.9998 13.4976 8.9998V22.9998C15.171 22.9998 17.1094 22.4115 18.647 20.8738C20.1847 19.3361 20.7731 17.3977 20.7731 15.7243H6.77305ZM2.75431 22.4489H13.2221V8.44887H2.75431V22.4489ZM20.2221 15.4489V13.7961H6.22211V15.4489H20.2221ZM13.2221 6.79605H2.75431V20.7961H13.2221V6.79605ZM-4.24569 13.7961V15.4489H9.75431V13.7961H-4.24569Z" fill="#8C8C8C" mask="url(#path-9-inside-5_4418_222756)"/>
<mask id="path-11-inside-6_4418_222756" fill="white">
<path d="M13.4978 5.03635H9.09029C8.92501 5.03635 8.81482 4.92616 8.81482 4.76088V0.298289C8.81482 0.188102 8.86991 0.0779143 8.9801 0.0228206C9.09029 -0.0322732 9.20048 0.0228206 9.25557 0.0779143L13.608 4.48541C13.6631 4.54051 13.7182 4.5956 13.7182 4.70579C13.7733 4.92616 13.6631 5.03635 13.4978 5.03635ZM9.36576 4.48541H12.8367L9.36576 0.959414V4.48541Z"/>
</mask>
<path d="M9.25557 0.0779143L14.2363 -4.84061L14.2209 -4.85627L14.2053 -4.87183L9.25557 0.0779143ZM13.608 4.48541L8.62719 9.40393L8.64266 9.41959L8.65823 9.43516L13.608 4.48541ZM13.7182 4.70579H6.71816V5.56753L6.92716 6.40354L13.7182 4.70579ZM9.36576 4.48541H2.36576V11.4854H9.36576V4.48541ZM12.8367 4.48541V11.4854H29.5497L17.8252 -0.425209L12.8367 4.48541ZM9.36576 0.959414L14.3543 -3.95121L2.36576 -16.1301V0.959414H9.36576ZM13.4978 -1.96365H9.09029V12.0363H13.4978V-1.96365ZM9.09029 -1.96365C10.5984 -1.96365 12.3991 -1.4304 13.8403 0.0108477C15.2816 1.4521 15.8148 3.25279 15.8148 4.76088H1.81482C1.81482 6.43426 2.40316 8.37268 3.94083 9.91034C5.47849 11.448 7.41691 12.0363 9.09029 12.0363V-1.96365ZM15.8148 4.76088V0.298289H1.81482V4.76088H15.8148ZM15.8148 0.298289C15.8148 2.45131 14.7003 4.98897 12.1106 6.28381L5.84961 -6.23817C3.03954 -4.83314 1.81482 -2.07511 1.81482 0.298289H15.8148ZM12.1106 6.28381C10.3554 7.16139 8.56936 7.12655 7.21545 6.73971C5.98531 6.38825 5.01467 5.73651 4.30582 5.02766L14.2053 -4.87183C13.0505 -6.02664 9.76196 -8.19435 5.84961 -6.23817L12.1106 6.28381ZM4.27479 4.99643L8.62719 9.40393L18.5888 -0.433108L14.2363 -4.84061L4.27479 4.99643ZM8.65823 9.43516C8.7777 9.55463 8.17465 8.9987 7.68128 8.17641C7.06321 7.1463 6.71816 5.94637 6.71816 4.70579H20.7182C20.7182 1.5178 18.6864 -0.335704 18.5577 -0.464336L8.65823 9.43516ZM6.92716 6.40354C6.64585 5.2783 6.4396 2.95506 8.09061 0.753708C9.75219 -1.46172 12.1005 -1.96365 13.4978 -1.96365V12.0363C15.0604 12.0363 17.5464 11.4793 19.2906 9.15371C21.0243 6.84217 20.8456 4.35365 20.5092 3.00804L6.92716 6.40354ZM9.36576 11.4854H12.8367V-2.51459H9.36576V11.4854ZM17.8252 -0.425209L14.3543 -3.95121L4.37719 5.87003L7.84809 9.39603L17.8252 -0.425209ZM2.36576 0.959414V4.48541H16.3658V0.959414H2.36576Z" fill="#8C8C8C" mask="url(#path-11-inside-6_4418_222756)"/>
<mask id="path-13-inside-7_4418_222756" fill="white">
<path d="M15.7017 13.7968H0.275469C0.110187 13.7968 0 13.6866 0 13.5213V8.12215C0 7.95687 0.110187 7.84668 0.275469 7.84668H15.7017C15.867 7.84668 15.9772 7.95687 15.9772 8.12215V13.5213C15.9772 13.6866 15.867 13.7968 15.7017 13.7968ZM0.550937 13.2459H15.4262V8.39762H0.550937V13.2459Z"/>
</mask>
<path d="M0.550937 13.2459H-6.44906V20.2459H0.550937V13.2459ZM15.4262 13.2459V20.2459H22.4262V13.2459H15.4262ZM15.4262 8.39762H22.4262V1.39762H15.4262V8.39762ZM0.550937 8.39762V1.39762H-6.44906V8.39762H0.550937ZM15.7017 6.7968H0.275469V20.7968H15.7017V6.7968ZM0.275469 6.7968C1.78356 6.7968 3.58425 7.33005 5.0255 8.7713C6.46675 10.2125 7 12.0132 7 13.5213H-7C-7 15.1947 -6.41166 17.1331 -4.87399 18.6708C-3.33633 20.2085 -1.39791 20.7968 0.275469 20.7968V6.7968ZM7 13.5213V8.12215H-7V13.5213H7ZM7 8.12215C7 9.63024 6.46675 11.4309 5.0255 12.8722C3.58425 14.3134 1.78356 14.8467 0.275469 14.8467V0.84668C-1.39791 0.84668 -3.33633 1.43502 -4.87399 2.97269C-6.41166 4.51035 -7 6.44877 -7 8.12215H7ZM0.275469 14.8467H15.7017V0.84668H0.275469V14.8467ZM15.7017 14.8467C14.1936 14.8467 12.3929 14.3134 10.9517 12.8722C9.51043 11.4309 8.97718 9.63024 8.97718 8.12215H22.9772C22.9772 6.44877 22.3888 4.51035 20.8512 2.97269C19.3135 1.43502 17.3751 0.84668 15.7017 0.84668V14.8467ZM8.97718 8.12215V13.5213H22.9772V8.12215H8.97718ZM8.97718 13.5213C8.97718 12.0132 9.51043 10.2125 10.9517 8.7713C12.3929 7.33005 14.1936 6.7968 15.7017 6.7968V20.7968C17.3751 20.7968 19.3135 20.2085 20.8512 18.6708C22.3888 17.1331 22.9772 15.1947 22.9772 13.5213H8.97718ZM0.550937 20.2459H15.4262V6.24587H0.550937V20.2459ZM22.4262 13.2459V8.39762H8.42624V13.2459H22.4262ZM15.4262 1.39762H0.550937V15.3976H15.4262V1.39762ZM-6.44906 8.39762V13.2459H7.55094V8.39762H-6.44906Z" fill="#8C8C8C" mask="url(#path-13-inside-7_4418_222756)"/>
</svg>
