<svg width="15" height="18" viewBox="0 0 15 18" fill="none" xmlns="http://www.w3.org/2000/svg">
<path fill-rule="evenodd" clip-rule="evenodd" d="M7.2 1.8C5.70883 1.8 4.5 3.00883 4.5 4.5C4.5 5.99117 5.70883 7.2 7.2 7.2C8.69117 7.2 9.9 5.99117 9.9 4.5C9.9 3.00883 8.69117 1.8 7.2 1.8ZM2.7 4.5C2.7 2.01472 4.71472 0 7.2 0C9.68528 0 11.7 2.01472 11.7 4.5C11.7 6.98528 9.68528 9 7.2 9C4.71472 9 2.7 6.98528 2.7 4.5ZM1.31802 12.118C2.16193 11.2741 3.30653 10.8 4.5 10.8H9.9C11.0935 10.8 12.2381 11.2741 13.082 12.118C13.9259 12.9619 14.4 14.1065 14.4 15.3V17.1C14.4 17.5971 13.9971 18 13.5 18C13.0029 18 12.6 17.5971 12.6 17.1V15.3C12.6 14.5839 12.3155 13.8972 11.8092 13.3908C11.3028 12.8845 10.6161 12.6 9.9 12.6H4.5C3.78392 12.6 3.09716 12.8845 2.59081 13.3908C2.08446 13.8972 1.8 14.5839 1.8 15.3V17.1C1.8 17.5971 1.39706 18 0.9 18C0.402944 18 0 17.5971 0 17.1V15.3C0 14.1065 0.474106 12.9619 1.31802 12.118Z" fill="#EA3F47"/>
</svg>
