<svg width="32" height="33" viewBox="0 0 32 33" fill="none" xmlns="http://www.w3.org/2000/svg">
<rect y="0.5" width="32" height="32" rx="16" fill="#ECEFF1"/>
<path fill-rule="evenodd" clip-rule="evenodd" d="M16.2 8.8C14.7088 8.8 13.5 10.0088 13.5 11.5C13.5 12.9912 14.7088 14.2 16.2 14.2C17.6912 14.2 18.9 12.9912 18.9 11.5C18.9 10.0088 17.6912 8.8 16.2 8.8ZM11.7 11.5C11.7 9.01472 13.7147 7 16.2 7C18.6853 7 20.7 9.01472 20.7 11.5C20.7 13.9853 18.6853 16 16.2 16C13.7147 16 11.7 13.9853 11.7 11.5ZM10.318 19.118C11.1619 18.2741 12.3065 17.8 13.5 17.8H18.9C20.0935 17.8 21.2381 18.2741 22.082 19.118C22.9259 19.9619 23.4 21.1065 23.4 22.3V24.1C23.4 24.5971 22.9971 25 22.5 25C22.0029 25 21.6 24.5971 21.6 24.1V22.3C21.6 21.5839 21.3155 20.8972 20.8092 20.3908C20.3028 19.8845 19.6161 19.6 18.9 19.6H13.5C12.7839 19.6 12.0972 19.8845 11.5908 20.3908C11.0845 20.8972 10.8 21.5839 10.8 22.3V24.1C10.8 24.5971 10.3971 25 9.9 25C9.40294 25 9 24.5971 9 24.1V22.3C9 21.1065 9.47411 19.9619 10.318 19.118Z" fill="black"/>
</svg>
