<svg width="32" height="32" viewBox="0 0 32 32" fill="none" xmlns="http://www.w3.org/2000/svg">
<rect width="32" height="32" rx="4" fill="#ECEFF1"/>
<path d="M20.3125 14.875H16.375V10.9375C16.375 10.7188 16.1562 10.5 15.9375 10.5H15.0625C14.8164 10.5 14.625 10.7188 14.625 10.9375V14.875H10.6875C10.4414 14.875 10.25 15.0938 10.25 15.3125V16.1875C10.25 16.4336 10.4414 16.625 10.6875 16.625H14.625V20.5625C14.625 20.8086 14.8164 21 15.0625 21H15.9375C16.1562 21 16.375 20.8086 16.375 20.5625V16.625H20.3125C20.5312 16.625 20.75 16.4336 20.75 16.1875V15.3125C20.75 15.0938 20.5312 14.875 20.3125 14.875Z" fill="black"/>
</svg>
