<svg width="33" height="32" viewBox="0 0 33 32" fill="none" xmlns="http://www.w3.org/2000/svg">
<rect x="0.981079" width="31.9811" height="32" rx="15.9905" fill="#ECEFF1"/>
<path d="M11.851 14.374L13.4055 15.0316C13.5915 14.6596 13.7841 14.3009 13.9834 13.9554C14.1827 13.61 14.402 13.2645 14.6411 12.9191L13.525 12.6999L11.851 14.374ZM14.681 16.0281L16.953 18.2802C17.511 18.0676 18.1089 17.7421 18.7466 17.3036C19.3844 16.8652 19.9823 16.3669 20.5403 15.8089C21.4703 14.8788 22.1979 13.846 22.723 12.7102C23.2475 11.574 23.4766 10.5275 23.4102 9.57091C22.4535 9.50448 21.4039 9.73354 20.2613 10.2581C19.1186 10.7832 18.0823 11.5107 17.1523 12.4408C16.5942 12.9988 16.096 13.5967 15.6575 14.2345C15.2191 14.8722 14.8936 15.4701 14.681 16.0281ZM18.2285 14.7327C17.9229 14.4271 17.7701 14.0516 17.7701 13.6063C17.7701 13.1614 17.9229 12.7862 18.2285 12.4806C18.534 12.1751 18.9127 12.0223 19.3644 12.0223C19.8162 12.0223 20.1948 12.1751 20.5004 12.4806C20.806 12.7862 20.9588 13.1614 20.9588 13.6063C20.9588 14.0516 20.806 14.4271 20.5004 14.7327C20.1948 15.0383 19.8162 15.1911 19.3644 15.1911C18.9127 15.1911 18.534 15.0383 18.2285 14.7327ZM18.6071 21.1301L20.2812 19.456L20.062 18.34C19.7165 18.5791 19.3711 18.7949 19.0256 18.9873C18.6802 19.1802 18.3215 19.3697 17.9494 19.5557L18.6071 21.1301ZM24.8451 8.11604C25.0976 9.7237 24.9416 11.2881 24.3772 12.8091C23.8122 14.3306 22.8389 15.7823 21.4571 17.1641L21.8557 19.1372C21.9088 19.4029 21.8955 19.662 21.8158 19.9144C21.7361 20.1669 21.6032 20.3861 21.4172 20.5721L18.069 23.9203L16.3949 19.9941L12.9869 16.5862L9.0608 14.9121L12.3891 11.5639C12.5751 11.3779 12.7977 11.245 13.0571 11.1653C13.3159 11.0856 13.5782 11.0723 13.8439 11.1254L15.817 11.524C17.1988 10.1422 18.647 9.16567 20.1616 8.59435C21.6763 8.02304 23.2374 7.8636 24.8451 8.11604ZM10.4758 19.1172C10.9408 18.6522 11.5087 18.4162 12.1794 18.4093C12.8506 18.4029 13.4188 18.6323 13.8838 19.0973C14.3488 19.5623 14.5779 20.1302 14.571 20.8009C14.5646 21.4721 14.3289 22.0402 13.8639 22.5053C13.5317 22.8374 12.9771 23.1231 12.2001 23.3622C11.4226 23.6014 10.3496 23.814 8.98108 24C9.16709 22.6315 9.37967 21.5585 9.61883 20.781C9.85799 20.004 10.1436 19.4494 10.4758 19.1172ZM11.6118 20.2333C11.4789 20.3662 11.3461 20.6088 11.2132 20.9611C11.0803 21.3129 10.9873 21.6682 10.9342 22.027C11.2929 21.9738 11.6485 21.8843 12.0008 21.7583C12.3527 21.6318 12.595 21.5021 12.7279 21.3693C12.8873 21.2098 12.9737 21.0172 12.9869 20.7913C13.0002 20.5655 12.9272 20.3728 12.7677 20.2134C12.6083 20.0539 12.4156 19.9774 12.1898 19.9838C11.9639 19.9907 11.7712 20.0739 11.6118 20.2333Z" fill="#37474F"/>
</svg>
