<svg width="10" height="12" viewBox="0 0 10 12" fill="none" xmlns="http://www.w3.org/2000/svg">
<path fill-rule="evenodd" clip-rule="evenodd" d="M3.27273 0.545455C3.27273 0.244208 3.51694 0 3.81818 0H6C6.30125 0 6.54545 0.244208 6.54545 0.545455C6.54545 0.846701 6.30125 1.09091 6 1.09091H3.81818C3.51694 1.09091 3.27273 0.846701 3.27273 0.545455ZM4.90909 3.27273C2.80037 3.27273 1.09091 4.98219 1.09091 7.09091C1.09091 9.19963 2.80037 10.9091 4.90909 10.9091C7.01781 10.9091 8.72727 9.19963 8.72727 7.09091C8.72727 4.98219 7.01781 3.27273 4.90909 3.27273ZM0 7.09091C0 4.37969 2.19787 2.18182 4.90909 2.18182C7.62031 2.18182 9.81818 4.37969 9.81818 7.09091C9.81818 9.80212 7.62031 12 4.90909 12C2.19787 12 0 9.80212 0 7.09091ZM6.93115 5.06885C7.14416 5.28186 7.14416 5.62723 6.93115 5.84024L5.29479 7.4766C5.08177 7.68962 4.73641 7.68962 4.5234 7.4766C4.31038 7.26359 4.31038 6.91823 4.5234 6.70521L6.15976 5.06885C6.37277 4.85584 6.71814 4.85584 6.93115 5.06885Z" fill="#37474F"/>
</svg>
