<svg width="10" height="8" viewBox="0 0 10 8" fill="none" xmlns="http://www.w3.org/2000/svg">
<path d="M9.91836 2.97641H7.2992C7.25418 2.97641 7.21735 3.01324 7.21735 3.05826V3.54935C7.21735 3.59437 7.25418 3.6312 7.2992 3.6312H9.91836C9.96338 3.6312 10.0002 3.59437 10.0002 3.54935V3.05826C10.0002 3.01324 9.96338 2.97641 9.91836 2.97641ZM8.54739 4.36784H7.2992C7.25418 4.36784 7.21735 4.40467 7.21735 4.44969V4.94078C7.21735 4.9858 7.25418 5.02263 7.2992 5.02263H8.54739C8.59241 5.02263 8.62924 4.9858 8.62924 4.94078V4.44969C8.62924 4.40467 8.59241 4.36784 8.54739 4.36784ZM5.13328 2.06073H4.69027C4.62684 2.06073 4.57568 2.11189 4.57568 2.17532V4.71263C4.57568 4.74946 4.59308 4.78322 4.62275 4.80471L6.14616 5.9158C6.19731 5.95264 6.26893 5.94241 6.30576 5.89125L6.5687 5.53214V5.53112C6.60553 5.47996 6.59428 5.40834 6.54312 5.37151L5.24684 4.43434V2.17532C5.24787 2.11189 5.19569 2.06073 5.13328 2.06073Z" fill="#B8B8B8"/>
<path d="M9.91836 2.97641H7.2992C7.25418 2.97641 7.21735 3.01324 7.21735 3.05826V3.54935C7.21735 3.59437 7.25418 3.6312 7.2992 3.6312H9.91836C9.96338 3.6312 10.0002 3.59437 10.0002 3.54935V3.05826C10.0002 3.01324 9.96338 2.97641 9.91836 2.97641ZM8.54739 4.36784H7.2992C7.25418 4.36784 7.21735 4.40467 7.21735 4.44969V4.94078C7.21735 4.9858 7.25418 5.02263 7.2992 5.02263H8.54739C8.59241 5.02263 8.62924 4.9858 8.62924 4.94078V4.44969C8.62924 4.40467 8.59241 4.36784 8.54739 4.36784ZM5.13328 2.06073H4.69027C4.62684 2.06073 4.57568 2.11189 4.57568 2.17532V4.71263C4.57568 4.74946 4.59308 4.78322 4.62275 4.80471L6.14616 5.9158C6.19731 5.95264 6.26893 5.94241 6.30576 5.89125L6.5687 5.53214V5.53112C6.60553 5.47996 6.59428 5.40834 6.54312 5.37151L5.24684 4.43434V2.17532C5.24787 2.11189 5.19569 2.06073 5.13328 2.06073Z" fill="black" fill-opacity="0.2"/>
<path d="M8.48368 5.65606H7.89232C7.83503 5.65606 7.7808 5.68573 7.75011 5.73484C7.62017 5.94048 7.46875 6.13078 7.29482 6.30471C6.99505 6.60448 6.64617 6.83979 6.25841 7.00349C5.85633 7.17333 5.4297 7.25927 4.98976 7.25927C4.5488 7.25927 4.12216 7.17333 3.7211 7.00349C3.33335 6.83979 2.98447 6.60448 2.6847 6.30471C2.38492 6.00494 2.14961 5.65606 1.98591 5.2683C1.81608 4.86724 1.73014 4.4406 1.73014 3.99964C1.73014 3.55868 1.81608 3.13307 1.98591 2.73099C2.14961 2.34323 2.38492 1.99435 2.6847 1.69458C2.98447 1.39481 3.33335 1.15949 3.7211 0.995797C4.12216 0.825961 4.54982 0.74002 4.98976 0.74002C5.43072 0.74002 5.85736 0.825961 6.25841 0.995797C6.64617 1.15949 6.99505 1.39481 7.29482 1.69458C7.46875 1.86851 7.62017 2.05881 7.75011 2.26445C7.7808 2.31356 7.83503 2.34323 7.89232 2.34323H8.48368C8.55427 2.34323 8.59929 2.26957 8.56757 2.20716C7.9005 0.880186 6.54795 0.0177049 5.03785 0.000312075C2.82691 -0.0273119 0.990428 1.78257 0.986335 3.99146C0.982243 6.20444 2.77575 8 4.98874 8C6.51828 8 7.89334 7.13445 8.56757 5.79213C8.59929 5.72972 8.55325 5.65606 8.48368 5.65606Z" fill="#B8B8B8"/>
<path d="M8.48368 5.65606H7.89232C7.83503 5.65606 7.7808 5.68573 7.75011 5.73484C7.62017 5.94048 7.46875 6.13078 7.29482 6.30471C6.99505 6.60448 6.64617 6.83979 6.25841 7.00349C5.85633 7.17333 5.4297 7.25927 4.98976 7.25927C4.5488 7.25927 4.12216 7.17333 3.7211 7.00349C3.33335 6.83979 2.98447 6.60448 2.6847 6.30471C2.38492 6.00494 2.14961 5.65606 1.98591 5.2683C1.81608 4.86724 1.73014 4.4406 1.73014 3.99964C1.73014 3.55868 1.81608 3.13307 1.98591 2.73099C2.14961 2.34323 2.38492 1.99435 2.6847 1.69458C2.98447 1.39481 3.33335 1.15949 3.7211 0.995797C4.12216 0.825961 4.54982 0.74002 4.98976 0.74002C5.43072 0.74002 5.85736 0.825961 6.25841 0.995797C6.64617 1.15949 6.99505 1.39481 7.29482 1.69458C7.46875 1.86851 7.62017 2.05881 7.75011 2.26445C7.7808 2.31356 7.83503 2.34323 7.89232 2.34323H8.48368C8.55427 2.34323 8.59929 2.26957 8.56757 2.20716C7.9005 0.880186 6.54795 0.0177049 5.03785 0.000312075C2.82691 -0.0273119 0.990428 1.78257 0.986335 3.99146C0.982243 6.20444 2.77575 8 4.98874 8C6.51828 8 7.89334 7.13445 8.56757 5.79213C8.59929 5.72972 8.55325 5.65606 8.48368 5.65606Z" fill="black" fill-opacity="0.2"/>
</svg>
