<svg width="16" height="16" viewBox="0 0 16 16" fill="none" xmlns="http://www.w3.org/2000/svg">
<g clip-path="url(#clip0_3897_158775)">
<path d="M6.72004 0C6.63517 0 6.55378 0.0337142 6.49376 0.0937258C6.43375 0.153737 6.40004 0.235131 6.40004 0.32V0.96C6.40004 1.04487 6.43375 1.12626 6.49376 1.18627C6.55378 1.24629 6.63517 1.28 6.72004 1.28H7.20004V2.1272C3.73828 2.5256 1.04004 5.47344 1.04004 9.04C1.04004 12.8773 4.16276 16 8.00004 16C11.8373 16 14.96 12.8773 14.96 9.04C14.9611 7.72661 14.5882 6.44006 13.8848 5.33088L14.5629 4.78192L14.865 5.15504C14.8914 5.18772 14.924 5.21486 14.961 5.23494C14.9979 5.25501 15.0384 5.26761 15.0802 5.27202C15.122 5.27644 15.1642 5.27257 15.2045 5.26065C15.2448 5.24874 15.2824 5.229 15.3151 5.20256L15.8127 4.79968C15.8786 4.74624 15.9205 4.66882 15.9293 4.58446C15.9382 4.50009 15.9131 4.41567 15.8597 4.34976L14.2488 2.36C14.2224 2.32732 14.1898 2.30018 14.1529 2.2801C14.116 2.26003 14.0754 2.24743 14.0336 2.24302C13.9918 2.2386 13.9496 2.24247 13.9093 2.25438C13.869 2.2663 13.8314 2.28604 13.7988 2.31248L13.3012 2.71536C13.2353 2.7688 13.1933 2.84622 13.1845 2.93058C13.1757 3.01495 13.2007 3.09937 13.2541 3.16528L13.5564 3.5384L12.8812 4.08464C11.8032 3.02256 10.3813 2.3096 8.80004 2.12752V1.28H9.28004C9.36491 1.28 9.4463 1.24629 9.50631 1.18627C9.56633 1.12626 9.60004 1.04487 9.60004 0.96V0.32C9.60004 0.235131 9.56633 0.153737 9.50631 0.0937258C9.4463 0.0337142 9.36491 0 9.28004 0L6.72004 0ZM8.00004 3.2C11.232 3.2 13.84 5.808 13.84 9.04C13.84 12.272 11.232 14.88 8.00004 14.88C4.76804 14.88 2.16004 12.272 2.16004 9.04C2.16004 5.808 4.76804 3.2 8.00004 3.2ZM8.00036 4.39088L8.00004 9.04L11.7175 11.8315C12.236 11.141 12.552 10.3196 12.6299 9.45957C12.7079 8.59953 12.5447 7.73477 12.1588 6.96224C11.7728 6.18974 11.1793 5.54 10.4448 5.08585C9.71036 4.63171 8.86391 4.39112 8.00036 4.39104V4.39088Z" fill="#B8B8B8"/>
</g>
<defs>
<clipPath id="clip0_3897_158775">
<rect width="16" height="16" fill="white"/>
</clipPath>
</defs>
</svg>
