<svg width="32" height="32" viewBox="0 0 32 32" fill="none" xmlns="http://www.w3.org/2000/svg">
<rect width="32" height="32" rx="4" fill="#EA3F47" fill-opacity="0.1"/>
<path d="M21.1875 10.9375H18.918L17.9883 9.40625C17.7695 9.05078 17.2773 8.75 16.8672 8.75H14.1055C13.6953 8.75 13.2031 9.05078 12.9844 9.40625L12.0547 10.9375H9.8125C9.56641 10.9375 9.375 11.1562 9.375 11.375V11.8125C9.375 12.0586 9.56641 12.25 9.8125 12.25H10.25L10.8242 21.5195C10.8516 22.2031 11.4531 22.75 12.1367 22.75H18.8359C19.5195 22.75 20.1211 22.2031 20.1484 21.5195L20.75 12.25H21.1875C21.4062 12.25 21.625 12.0586 21.625 11.8125V11.375C21.625 11.1562 21.4062 10.9375 21.1875 10.9375ZM14.1055 10.0625H16.8672L17.3867 10.9375H13.5859L14.1055 10.0625ZM18.8359 21.4375H12.1367L11.5625 12.25H19.4102L18.8359 21.4375Z" fill="#EA3F47"/>
</svg>
