<svg width="17" height="16" viewBox="0 0 17 16" fill="none" xmlns="http://www.w3.org/2000/svg">
<g clip-path="url(#clip0_6376_99667)">
<path fill-rule="evenodd" clip-rule="evenodd" d="M8.31019 4.31741C7.8479 4.13591 7.35037 4.06199 6.85528 4.10126C6.36019 4.14052 5.88053 4.29194 5.45263 4.54404C5.02473 4.79614 4.65981 5.14231 4.38551 5.55634C4.11121 5.97036 3.93473 6.44138 3.86943 6.93371C3.80413 7.42604 3.85172 7.92678 4.00861 8.39799C4.1655 8.8692 4.42756 9.29853 4.77495 9.65346C4.98569 9.86877 4.98198 10.2141 4.76667 10.4249C4.55137 10.6356 4.20599 10.6319 3.99526 10.4166C3.53207 9.94336 3.18265 9.37092 2.97347 8.74263C2.76428 8.11435 2.70082 7.4467 2.78789 6.79026C2.87495 6.13382 3.11026 5.5058 3.47599 4.95377C3.84172 4.40173 4.32829 3.94017 4.89882 3.60404C5.46936 3.2679 6.10891 3.06601 6.76902 3.01366C7.42914 2.96131 8.09252 3.05986 8.70891 3.30186C9.32529 3.54386 9.87853 3.92296 10.3267 4.41044C10.6815 4.79637 10.9631 5.24222 11.159 5.72608H11.7494C11.7494 5.72608 11.7494 5.72608 11.7494 5.72608C12.3931 5.72602 13.0198 5.93299 13.5369 6.31643C14.0539 6.69987 14.434 7.23946 14.6208 7.85548C14.8077 8.4715 14.7914 9.13129 14.5745 9.73737C14.3576 10.3435 13.9515 10.8637 13.4162 11.2213C13.1657 11.3886 12.8269 11.3212 12.6596 11.0706C12.4922 10.8201 12.5597 10.4814 12.8102 10.314C13.1509 10.0865 13.4093 9.75542 13.5473 9.36973C13.6854 8.98404 13.6957 8.56418 13.5768 8.17216C13.4579 7.78015 13.216 7.43678 12.887 7.19277C12.558 6.94875 12.1592 6.81704 11.7495 6.81709H10.773C10.5318 6.81709 10.3193 6.65873 10.2503 6.42765C10.1082 5.95177 9.85967 5.51446 9.52354 5.14884C9.18741 4.78323 8.77248 4.49891 8.31019 4.31741ZM8.74915 7.9081C8.89383 7.9081 9.03258 7.96557 9.13488 8.06788L11.3169 10.2499C11.5299 10.4629 11.5299 10.8083 11.3169 11.0214C11.1039 11.2344 10.7585 11.2344 10.5454 11.0214L9.29466 9.77057V13.3632C9.29466 13.6644 9.05043 13.9087 8.74915 13.9087C8.44788 13.9087 8.20365 13.6644 8.20365 13.3632V9.77057L6.95286 11.0214C6.73983 11.2344 6.39443 11.2344 6.1814 11.0214C5.96837 10.8083 5.96837 10.4629 6.1814 10.2499L8.36342 8.06788C8.46572 7.96557 8.60448 7.9081 8.74915 7.9081Z" fill="#EA3F47"/>
</g>
<defs>
<clipPath id="clip0_6376_99667">
<rect width="12" height="12" fill="white" transform="translate(2.75 2)"/>
</clipPath>
</defs>
</svg>
