<svg width="18" height="18" viewBox="0 0 18 18" fill="none" xmlns="http://www.w3.org/2000/svg">
<path fill-rule="evenodd" clip-rule="evenodd" d="M16.4636 0.263604C16.8151 -0.087868 17.3849 -0.087868 17.7364 0.263604C18.0879 0.615076 18.0879 1.18492 17.7364 1.5364L12.9728 6.3H16.2C16.6971 6.3 17.1 6.70294 17.1 7.2C17.1 7.69706 16.6971 8.1 16.2 8.1H10.8C10.3029 8.1 9.9 7.69706 9.9 7.2V1.8C9.9 1.30294 10.3029 0.9 10.8 0.9C11.2971 0.9 11.7 1.30294 11.7 1.8V5.02721L16.4636 0.263604ZM0.9 10.8C0.9 10.3029 1.30294 9.9 1.8 9.9H7.2C7.69706 9.9 8.1 10.3029 8.1 10.8V16.2C8.1 16.6971 7.69706 17.1 7.2 17.1C6.70294 17.1 6.3 16.6971 6.3 16.2V12.9728L1.5364 17.7364C1.18492 18.0879 0.615076 18.0879 0.263604 17.7364C-0.087868 17.3849 -0.087868 16.8151 0.263604 16.4636L5.02721 11.7H1.8C1.30294 11.7 0.9 11.2971 0.9 10.8Z" fill="#263238"/>
</svg>
