<svg width="12" height="14" viewBox="0 0 12 14" fill="none" xmlns="http://www.w3.org/2000/svg">
<path d="M6.62334 0.918348L11.4107 3.44901C12.1213 3.82435 12.1213 4.84235 11.4107 5.21701L10.5613 5.66635L11.4107 6.11568C12.1213 6.49101 12.1213 7.50901 11.4107 7.88368L10.5613 8.33301L11.4107 8.78235C12.1213 9.15768 12.1213 10.1757 11.4107 10.5503L6.62334 13.081C6.43126 13.1826 6.21728 13.2357 6 13.2357C5.78273 13.2357 5.56874 13.1826 5.37667 13.081L0.589335 10.5503C-0.121331 10.175 -0.121331 9.15768 0.589335 8.78235L1.43934 8.33301L0.589335 7.88368C-0.121331 7.50835 -0.121331 6.49101 0.589335 6.11568L1.43934 5.66635L0.589335 5.21701C-0.121331 4.84168 -0.121331 3.82435 0.589335 3.44901L5.37667 0.918348C5.56874 0.816771 5.78273 0.763672 6 0.763672C6.21728 0.763672 6.43126 0.816771 6.62334 0.918348ZM9.13467 9.08702L6.62334 10.4143C6.43126 10.5159 6.21728 10.569 6 10.569C5.78273 10.569 5.56874 10.5159 5.37667 10.4143L2.86534 9.08768L1.77 9.66635L6 11.9023L10.2307 9.66635L9.13467 9.08702ZM9.13467 6.42035L6.62334 7.74835C6.44917 7.84032 6.25679 7.89257 6.06002 7.90133C5.86325 7.91009 5.66699 7.87515 5.48534 7.79902L5.37667 7.74835L2.86534 6.42035L1.77 7.00035L6 9.23501L10.2307 6.99968L9.13467 6.42035ZM6 2.09701L1.77 4.33301L6 6.56901L10.2307 4.33301L6 2.09701Z" fill="#8C8C8C"/>
</svg>
