<svg width="28" height="26" viewBox="0 0 28 26" fill="none" xmlns="http://www.w3.org/2000/svg">
<rect x="0.904541" y="0.199219" width="26.2622" height="25" rx="12.5" fill="#ECEFF1"/>
<path d="M21.5812 12.5274C20.9872 10.9909 19.9559 9.66205 18.6149 8.70521C17.2739 7.74838 15.682 7.20546 14.0357 7.14355C12.3895 7.20546 10.7976 7.74838 9.45656 8.70521C8.11555 9.66205 7.08431 10.9909 6.49029 12.5274C6.45018 12.6384 6.45018 12.7599 6.49029 12.8708C7.08431 14.4074 8.11555 15.7362 9.45656 16.693C10.7976 17.6498 12.3895 18.1928 14.0357 18.2547C15.682 18.1928 17.2739 17.6498 18.6149 16.693C19.9559 15.7362 20.9872 14.4074 21.5812 12.8708C21.6213 12.7599 21.6213 12.6384 21.5812 12.5274ZM14.0357 17.2446C11.359 17.2446 8.5307 15.2597 7.50544 12.6991C8.5307 10.1385 11.359 8.15366 14.0357 8.15366C16.7125 8.15366 19.5408 10.1385 20.5661 12.6991C19.5408 15.2597 16.7125 17.2446 14.0357 17.2446Z" fill="black"/>
<path d="M14.0369 9.66895C13.4376 9.66895 12.8517 9.84667 12.3533 10.1796C11.855 10.5126 11.4666 10.9859 11.2373 11.5396C11.0079 12.0933 10.9479 12.7026 11.0648 13.2904C11.1817 13.8783 11.4704 14.4182 11.8941 14.842C12.3179 15.2658 12.8579 15.5544 13.4457 15.6713C14.0335 15.7882 14.6428 15.7282 15.1965 15.4989C15.7503 15.2695 16.2235 14.8811 16.5565 14.3828C16.8895 13.8845 17.0672 13.2986 17.0672 12.6992C17.0672 11.8956 16.7479 11.1248 16.1796 10.5565C15.6114 9.98821 14.8406 9.66895 14.0369 9.66895ZM14.0369 14.7194C13.6373 14.7194 13.2468 14.601 12.9145 14.379C12.5823 14.157 12.3234 13.8415 12.1705 13.4723C12.0176 13.1032 11.9776 12.697 12.0555 12.3051C12.1335 11.9132 12.3259 11.5533 12.6084 11.2707C12.8909 10.9882 13.2509 10.7958 13.6428 10.7179C14.0347 10.6399 14.4408 10.6799 14.81 10.8328C15.1791 10.9857 15.4946 11.2447 15.7166 11.5769C15.9386 11.9091 16.0571 12.2997 16.0571 12.6992C16.0571 13.235 15.8443 13.7489 15.4654 14.1277C15.0865 14.5066 14.5727 14.7194 14.0369 14.7194Z" fill="black"/>
</svg>
