<svg width="18" height="19" viewBox="0 0 18 19" fill="none" xmlns="http://www.w3.org/2000/svg">
<path d="M15.2457 3.25426C14.4337 2.39833 13.4584 1.71371 12.3774 1.2408C11.2964 0.767889 10.1317 0.516262 8.95194 0.500762C7.77216 0.485263 6.60123 0.706206 5.50822 1.15056C4.41521 1.59491 3.42227 2.25367 2.58797 3.08797C1.75367 3.92227 1.09491 4.91521 0.650557 6.00822C0.206206 7.10123 -0.0147367 8.27216 0.000762451 9.45194C0.0162616 10.6317 0.267889 11.7964 0.7408 12.8774C1.21371 13.9584 1.89833 14.9337 2.75426 15.7457C3.56635 16.6017 4.54165 17.2863 5.6226 17.7592C6.70356 18.2321 7.86829 18.4837 9.04806 18.4992C10.2278 18.5147 11.3988 18.2938 12.4918 17.8494C13.5848 17.4051 14.5777 16.7463 15.412 15.912C16.2463 15.0777 16.9051 14.0848 17.3494 12.9918C17.7938 11.8988 18.0147 10.7278 17.9992 9.54806C17.9837 8.36829 17.7321 7.20356 17.2592 6.1226C16.7863 5.04165 16.1017 4.06635 15.2457 3.25426ZM7.09422 10.0198H10.9058L12.1272 12.6705C11.7982 12.5206 11.4406 12.4438 11.079 12.4453C10.6756 12.4453 10.2777 12.5392 9.91681 12.7197C9.55596 12.9001 9.24207 13.162 9 13.4848C8.75793 13.162 8.44404 12.9001 8.08318 12.7197C7.72233 12.5392 7.32442 12.4453 6.92097 12.4453C6.55942 12.4438 6.20183 12.5206 5.8728 12.6705L7.09422 10.0198ZM7.57067 8.98024L9 5.88769L10.4293 8.98024H7.57067ZM9.51976 15.0441C9.51976 14.6305 9.68404 14.2339 9.97646 13.9415C10.2689 13.6491 10.6655 13.4848 11.079 13.4848C11.4926 13.4848 11.8892 13.6491 12.1816 13.9415C12.474 14.2339 12.6383 14.6305 12.6383 15.0441V16.3954C11.6723 16.9054 10.6097 17.2065 9.51976 17.279V15.0441ZM5.3617 15.0441C5.3617 14.6305 5.52598 14.2339 5.8184 13.9415C6.11082 13.6491 6.50743 13.4848 6.92097 13.4848C7.33452 13.4848 7.73112 13.6491 8.02354 13.9415C8.31596 14.2339 8.48024 14.6305 8.48024 15.0441V17.279C7.39026 17.2065 6.32774 16.9054 5.3617 16.3954V15.0441ZM14.5094 15.0094C14.2531 15.2749 13.9749 15.5183 13.6778 15.7371V13.6581C13.6782 13.5827 13.6603 13.5084 13.6258 13.4415L9.46778 4.43237C9.42782 4.3416 9.36232 4.26442 9.27927 4.21023C9.19621 4.15604 9.09917 4.12718 9 4.12718C8.90083 4.12718 8.80379 4.15604 8.72073 4.21023C8.63767 4.26442 8.57217 4.3416 8.53222 4.43237L4.37416 13.4415C4.33966 13.5084 4.32183 13.5827 4.32219 13.6581V15.7371C4.02508 15.5183 3.7469 15.2749 3.49058 15.0094C2.39927 13.9195 1.65577 12.5303 1.35416 11.0177C1.05255 9.50509 1.20638 7.93701 1.79618 6.51185C2.38598 5.08668 3.38526 3.86849 4.66757 3.01138C5.94988 2.15428 7.45761 1.69679 9 1.69679C10.5424 1.69679 12.0501 2.15428 13.3324 3.01138C14.6147 3.86849 15.614 5.08668 16.2038 6.51185C16.7936 7.93701 16.9474 9.50509 16.6458 11.0177C16.3442 12.5303 15.6007 13.9195 14.5094 15.0094Z" fill="black"/>
</svg>
