<svg width="33" height="32" viewBox="0 0 33 32" fill="none" xmlns="http://www.w3.org/2000/svg">
<path d="M28 5.75H22.75V3.75C22.75 3.6125 22.6375 3.5 22.5 3.5H20.75C20.6125 3.5 20.5 3.6125 20.5 3.75V5.75H12.5V3.75C12.5 3.6125 12.3875 3.5 12.25 3.5H10.5C10.3625 3.5 10.25 3.6125 10.25 3.75V5.75H5C4.44687 5.75 4 6.19688 4 6.75V27.5C4 28.0531 4.44687 28.5 5 28.5H28C28.5531 28.5 29 28.0531 29 27.5V6.75C29 6.19688 28.5531 5.75 28 5.75ZM26.75 26.25H6.25V14.375H26.75V26.25ZM6.25 12.25V8H10.25V9.5C10.25 9.6375 10.3625 9.75 10.5 9.75H12.25C12.3875 9.75 12.5 9.6375 12.5 9.5V8H20.5V9.5C20.5 9.6375 20.6125 9.75 20.75 9.75H22.5C22.6375 9.75 22.75 9.6375 22.75 9.5V8H26.75V12.25H6.25Z" fill="#8C8C8C"/>
</svg>
