<svg width="16" height="17" viewBox="0 0 16 17" fill="none" xmlns="http://www.w3.org/2000/svg">
<path d="M5.12 12.5L8 9.62L10.88 12.5L12 11.38L9.12 8.5L12 5.62L10.88 4.5L8 7.38L5.12 4.5L4 5.62L6.88 8.5L4 11.38L5.12 12.5ZM8 16.5C6.89333 16.5 5.85333 16.2899 4.88 15.8696C3.90667 15.4499 3.06 14.88 2.34 14.16C1.62 13.44 1.05013 12.5933 0.6304 11.62C0.210133 10.6467 0 9.60667 0 8.5C0 7.39333 0.210133 6.35333 0.6304 5.38C1.05013 4.40667 1.62 3.56 2.34 2.84C3.06 2.12 3.90667 1.54987 4.88 1.1296C5.85333 0.709867 6.89333 0.5 8 0.5C9.10667 0.5 10.1467 0.709867 11.12 1.1296C12.0933 1.54987 12.94 2.12 13.66 2.84C14.38 3.56 14.9499 4.40667 15.3696 5.38C15.7899 6.35333 16 7.39333 16 8.5C16 9.60667 15.7899 10.6467 15.3696 11.62C14.9499 12.5933 14.38 13.44 13.66 14.16C12.94 14.88 12.0933 15.4499 11.12 15.8696C10.1467 16.2899 9.10667 16.5 8 16.5Z" fill="#B8B8B8"/>
</svg>
