<svg width="20" height="21" viewBox="0 0 20 21" fill="none" xmlns="http://www.w3.org/2000/svg">
<path fill-rule="evenodd" clip-rule="evenodd" d="M10 3.13636C5.93318 3.13636 2.63636 6.43318 2.63636 10.5C2.63636 14.5668 5.93318 17.8636 10 17.8636C14.0668 17.8636 17.3636 14.5668 17.3636 10.5C17.3636 6.43318 14.0668 3.13636 10 3.13636ZM1 10.5C1 5.52944 5.02944 1.5 10 1.5C14.9706 1.5 19 5.52944 19 10.5C19 15.4706 14.9706 19.5 10 19.5C5.02944 19.5 1 15.4706 1 10.5ZM6.96691 7.46691C7.28643 7.14739 7.80448 7.14739 8.124 7.46691L10 9.34292L11.876 7.46691C12.1955 7.14739 12.7136 7.14739 13.0331 7.46691C13.3526 7.78643 13.3526 8.30448 13.0331 8.624L11.1571 10.5L13.0331 12.376C13.3526 12.6955 13.3526 13.2136 13.0331 13.5331C12.7136 13.8526 12.1955 13.8526 11.876 13.5331L10 11.6571L8.124 13.5331C7.80448 13.8526 7.28643 13.8526 6.96691 13.5331C6.64739 13.2136 6.64739 12.6955 6.96691 12.376L8.84292 10.5L6.96691 8.624C6.64739 8.30448 6.64739 7.78643 6.96691 7.46691Z" fill="#EA3F47"/>
</svg>
