<svg width="24" height="24" viewBox="0 0 24 24" fill="none" xmlns="http://www.w3.org/2000/svg">
<path d="M6.75 13.5045C6.55109 13.5045 6.36032 13.5835 6.21967 13.7242C6.07902 13.8648 6 14.0556 6 14.2545V17.2545C6 17.4534 6.07902 17.6442 6.21967 17.7848C6.36032 17.9255 6.55109 18.0045 6.75 18.0045C6.94891 18.0045 7.13968 17.9255 7.28033 17.7848C7.42098 17.6442 7.5 17.4534 7.5 17.2545V17.0055H7.9995C8.46376 17.0055 8.90901 16.8211 9.23729 16.4928C9.56557 16.1645 9.75 15.7193 9.75 15.255C9.75 14.7907 9.56557 14.3455 9.23729 14.0172C8.90901 13.6889 8.46376 13.5045 7.9995 13.5045H6.75ZM7.9995 15.5055H7.5V15.0045H7.9995C8.06594 15.0045 8.12965 15.0309 8.17663 15.0779C8.22361 15.1248 8.25 15.1886 8.25 15.255C8.25 15.3214 8.22361 15.3851 8.17663 15.4321C8.12965 15.4791 8.06594 15.5055 7.9995 15.5055ZM15.0015 14.253C15.0019 14.0543 15.0811 13.864 15.2217 13.7236C15.3623 13.5833 15.5528 13.5045 15.7515 13.5045H17.2485C17.4474 13.5045 17.6382 13.5835 17.7788 13.7242C17.9195 13.8648 17.9985 14.0556 17.9985 14.2545C17.9985 14.4534 17.9195 14.6442 17.7788 14.7848C17.6382 14.9255 17.4474 15.0045 17.2485 15.0045H16.4985V15.507H17.2485C17.4474 15.507 17.6382 15.586 17.7788 15.7267C17.9195 15.8673 17.9985 16.0581 17.9985 16.257C17.9985 16.4559 17.9195 16.6467 17.7788 16.7873C17.6382 16.928 17.4474 17.007 17.2485 17.007H16.5V17.253C16.5002 17.3515 16.481 17.449 16.4435 17.5401C16.406 17.6312 16.3509 17.714 16.2814 17.7838C16.141 17.9247 15.9504 18.0041 15.7515 18.0045C15.5526 18.0049 15.3617 17.9263 15.2207 17.7859C15.0798 17.6455 15.0004 17.4549 15 17.256V14.253H15.0015ZM11.247 13.5045C11.0481 13.5045 10.8573 13.5835 10.7167 13.7242C10.576 13.8648 10.497 14.0556 10.497 14.2545V17.2545C10.497 17.4534 10.576 17.6442 10.7167 17.7848C10.8573 17.9255 11.0481 18.0045 11.247 18.0045H12C12.5967 18.0045 13.169 17.7674 13.591 17.3455C14.0129 16.9235 14.25 16.3512 14.25 15.7545C14.25 15.1578 14.0129 14.5855 13.591 14.1635C13.169 13.7415 12.5967 13.5045 12 13.5045H11.247ZM11.997 16.5045V15.0045H12C12.1989 15.0045 12.3897 15.0835 12.5303 15.2242C12.671 15.3648 12.75 15.5556 12.75 15.7545C12.75 15.9534 12.671 16.1442 12.5303 16.2848C12.3897 16.4255 12.1989 16.5045 12 16.5045H11.997ZM4.5 5.25299V10.626C4.06089 10.7812 3.68078 11.0689 3.41211 11.4494C3.14344 11.8298 2.99945 12.2842 3 12.75V18.7545C3 19.3512 3.23705 19.9235 3.65901 20.3455C4.08097 20.7674 4.65326 21.0045 5.25 21.0045H18.75C19.3467 21.0045 19.919 20.7674 20.341 20.3455C20.7629 19.9235 21 19.3512 21 18.7545V12.7485C21.0002 12.283 20.8561 11.8289 20.5875 11.4488C20.3188 11.0686 19.9389 10.7812 19.5 10.626V8.12099C19.5003 7.82486 19.4422 7.53157 19.3289 7.25795C19.2157 6.98433 19.0495 6.73576 18.84 6.52649L15.966 3.66149C15.5442 3.23996 14.9723 3.00312 14.376 3.00299H6.75C6.15326 3.00299 5.58097 3.24004 5.15901 3.662C4.73705 4.08396 4.5 4.65625 4.5 5.25299ZM6.75 4.50299H13.5V6.74999C13.5 7.34673 13.7371 7.91902 14.159 8.34098C14.581 8.76294 15.1533 8.99999 15.75 8.99999H18V10.4985H6V5.25299C6 5.05408 6.07902 4.86331 6.21967 4.72266C6.36032 4.58201 6.55109 4.50299 6.75 4.50299ZM15 4.81499L17.691 7.49999H15.75C15.5511 7.49999 15.3603 7.42097 15.2197 7.28032C15.079 7.13967 15 6.9489 15 6.74999V4.81499ZM5.25 12H18.75C18.9489 12 19.1397 12.079 19.2803 12.2197C19.421 12.3603 19.5 12.5511 19.5 12.75V18.7545C19.5 18.9534 19.421 19.1442 19.2803 19.2848C19.1397 19.4255 18.9489 19.5045 18.75 19.5045H5.25C5.05109 19.5045 4.86032 19.4255 4.71967 19.2848C4.57902 19.1442 4.5 18.9534 4.5 18.7545V12.7485C4.5 12.5496 4.57902 12.3588 4.71967 12.2182C4.86032 12.0775 5.05109 11.9985 5.25 11.9985V12Z" fill="black"/>
</svg>
