<svg width="16" height="16" viewBox="0 0 16 16" fill="none" xmlns="http://www.w3.org/2000/svg">
<path d="M12.6667 12H3.33334C2.96515 12 2.66667 12.2985 2.66667 12.6667C2.66667 13.0349 2.96515 13.3333 3.33334 13.3333H12.6667C13.0349 13.3333 13.3333 13.0349 13.3333 12.6667C13.3333 12.2985 13.0349 12 12.6667 12Z" fill="#8C8C8C"/>
<path d="M2.66667 11.333V12.6663C2.66667 13.0345 2.96515 13.333 3.33334 13.333C3.70153 13.333 4.00001 13.0345 4.00001 12.6663V11.333C4.00001 10.9648 3.70153 10.6663 3.33334 10.6663C2.96515 10.6663 2.66667 10.9648 2.66667 11.333Z" fill="#8C8C8C"/>
<path d="M12 11.333V12.6663C12 13.0345 12.2985 13.333 12.6667 13.333C13.0349 13.333 13.3333 13.0345 13.3333 12.6663V11.333C13.3333 10.9648 13.0349 10.6663 12.6667 10.6663C12.2985 10.6663 12 10.9648 12 11.333Z" fill="#8C8C8C"/>
<path d="M8 10.0003C7.86179 10.0014 7.72667 9.95944 7.61334 9.88033L4.94667 8.00033C4.80294 7.89837 4.70543 7.74366 4.67545 7.57001C4.64547 7.39636 4.68545 7.21791 4.78667 7.07366C4.83719 7.00156 4.9015 6.94018 4.97587 6.89307C5.05025 6.84595 5.13322 6.81403 5.21999 6.79916C5.30677 6.78428 5.39563 6.78674 5.48145 6.80639C5.56727 6.82605 5.64835 6.8625 5.72 6.91366L8 8.50699L10.2667 6.80033C10.4081 6.69424 10.5859 6.64869 10.761 6.6737C10.936 6.6987 11.0939 6.79221 11.2 6.93366C11.3061 7.07511 11.3516 7.25291 11.3266 7.42794C11.3016 7.60298 11.2081 7.76091 11.0667 7.86699L8.4 9.86699C8.28461 9.95354 8.14425 10.0003 8 10.0003Z" fill="#8C8C8C"/>
<path d="M7.99999 8.66667C7.82318 8.66667 7.65361 8.59643 7.52859 8.4714C7.40357 8.34638 7.33333 8.17681 7.33333 8V2.66667C7.33333 2.48986 7.40357 2.32029 7.52859 2.19526C7.65361 2.07024 7.82318 2 7.99999 2C8.17681 2 8.34638 2.07024 8.4714 2.19526C8.59642 2.32029 8.66666 2.48986 8.66666 2.66667V8C8.66666 8.17681 8.59642 8.34638 8.4714 8.4714C8.34638 8.59643 8.17681 8.66667 7.99999 8.66667Z" fill="#8C8C8C"/>
</svg>
