<svg width="20" height="20" viewBox="0 0 20 20" fill="none" xmlns="http://www.w3.org/2000/svg">
<path fill-rule="evenodd" clip-rule="evenodd" d="M5.45455 2.63636C5.00268 2.63636 4.63636 3.00268 4.63636 3.45455V16.5455C4.63636 16.9973 5.00268 17.3636 5.45455 17.3636H7.09091V14.9091C7.09091 14.4572 7.45722 14.0909 7.90909 14.0909H12.8182C13.2701 14.0909 13.6364 14.4572 13.6364 14.9091V17.3636H15.2727C15.7246 17.3636 16.0909 16.9973 16.0909 16.5455V3.45455C16.0909 3.00268 15.7246 2.63636 15.2727 2.63636H5.45455ZM15.2727 19C16.6283 19 17.7273 17.9011 17.7273 16.5455V3.45455C17.7273 2.09894 16.6283 1 15.2727 1H5.45455C4.09894 1 3 2.09894 3 3.45455V16.5455C3 17.9011 4.09894 19 5.45455 19H15.2727ZM12 17.3636V15.7273H8.72727V17.3636H12ZM6.27273 5.09091C6.27273 4.63904 6.63904 4.27273 7.09091 4.27273H7.09909C7.55096 4.27273 7.91727 4.63904 7.91727 5.09091C7.91727 5.54278 7.55096 5.90909 7.09909 5.90909H7.09091C6.63904 5.90909 6.27273 5.54278 6.27273 5.09091ZM9.54545 5.09091C9.54545 4.63904 9.91177 4.27273 10.3636 4.27273H10.3718C10.8237 4.27273 11.19 4.63904 11.19 5.09091C11.19 5.54278 10.8237 5.90909 10.3718 5.90909H10.3636C9.91177 5.90909 9.54545 5.54278 9.54545 5.09091ZM12.8182 5.09091C12.8182 4.63904 13.1845 4.27273 13.6364 4.27273H13.6445C14.0964 4.27273 14.4627 4.63904 14.4627 5.09091C14.4627 5.54278 14.0964 5.90909 13.6445 5.90909H13.6364C13.1845 5.90909 12.8182 5.54278 12.8182 5.09091ZM6.27273 8.36364C6.27273 7.91177 6.63904 7.54545 7.09091 7.54545H7.09909C7.55096 7.54545 7.91727 7.91177 7.91727 8.36364C7.91727 8.81551 7.55096 9.18182 7.09909 9.18182H7.09091C6.63904 9.18182 6.27273 8.81551 6.27273 8.36364ZM9.54545 8.36364C9.54545 7.91177 9.91177 7.54545 10.3636 7.54545H10.3718C10.8237 7.54545 11.19 7.91177 11.19 8.36364C11.19 8.81551 10.8237 9.18182 10.3718 9.18182H10.3636C9.91177 9.18182 9.54545 8.81551 9.54545 8.36364ZM12.8182 8.36364C12.8182 7.91177 13.1845 7.54545 13.6364 7.54545H13.6445C14.0964 7.54545 14.4627 7.91177 14.4627 8.36364C14.4627 8.81551 14.0964 9.18182 13.6445 9.18182H13.6364C13.1845 9.18182 12.8182 8.81551 12.8182 8.36364ZM6.27273 11.6364C6.27273 11.1845 6.63904 10.8182 7.09091 10.8182H7.09909C7.55096 10.8182 7.91727 11.1845 7.91727 11.6364C7.91727 12.0882 7.55096 12.4545 7.09909 12.4545H7.09091C6.63904 12.4545 6.27273 12.0882 6.27273 11.6364ZM9.54545 11.6364C9.54545 11.1845 9.91177 10.8182 10.3636 10.8182H10.3718C10.8237 10.8182 11.19 11.1845 11.19 11.6364C11.19 12.0882 10.8237 12.4545 10.3718 12.4545H10.3636C9.91177 12.4545 9.54545 12.0882 9.54545 11.6364ZM12.8182 11.6364C12.8182 11.1845 13.1845 10.8182 13.6364 10.8182H13.6445C14.0964 10.8182 14.4627 11.1845 14.4627 11.6364C14.4627 12.0882 14.0964 12.4545 13.6445 12.4545H13.6364C13.1845 12.4545 12.8182 12.0882 12.8182 11.6364Z" fill="black"/>
</svg>
