<svg width="32" height="33" viewBox="0 0 32 33" fill="none" xmlns="http://www.w3.org/2000/svg">
<rect y="0.5" width="32" height="32" rx="16" fill="#ECEFF1"/>
<path fill-rule="evenodd" clip-rule="evenodd" d="M11.4545 8.63636C11.0027 8.63636 10.6364 9.00268 10.6364 9.45455V22.5455C10.6364 22.9973 11.0027 23.3636 11.4545 23.3636H13.0909V20.9091C13.0909 20.4572 13.4572 20.0909 13.9091 20.0909H18.8182C19.2701 20.0909 19.6364 20.4572 19.6364 20.9091V23.3636H21.2727C21.7246 23.3636 22.0909 22.9973 22.0909 22.5455V9.45455C22.0909 9.00268 21.7246 8.63636 21.2727 8.63636H11.4545ZM21.2727 25C22.6283 25 23.7273 23.9011 23.7273 22.5455V9.45455C23.7273 8.09894 22.6283 7 21.2727 7H11.4545C10.0989 7 9 8.09894 9 9.45455V22.5455C9 23.9011 10.0989 25 11.4545 25H21.2727ZM18 23.3636V21.7273H14.7273V23.3636H18ZM12.2727 11.0909C12.2727 10.639 12.639 10.2727 13.0909 10.2727H13.0991C13.551 10.2727 13.9173 10.639 13.9173 11.0909C13.9173 11.5428 13.551 11.9091 13.0991 11.9091H13.0909C12.639 11.9091 12.2727 11.5428 12.2727 11.0909ZM15.5455 11.0909C15.5455 10.639 15.9118 10.2727 16.3636 10.2727H16.3718C16.8237 10.2727 17.19 10.639 17.19 11.0909C17.19 11.5428 16.8237 11.9091 16.3718 11.9091H16.3636C15.9118 11.9091 15.5455 11.5428 15.5455 11.0909ZM18.8182 11.0909C18.8182 10.639 19.1845 10.2727 19.6364 10.2727H19.6445C20.0964 10.2727 20.4627 10.639 20.4627 11.0909C20.4627 11.5428 20.0964 11.9091 19.6445 11.9091H19.6364C19.1845 11.9091 18.8182 11.5428 18.8182 11.0909ZM12.2727 14.3636C12.2727 13.9118 12.639 13.5455 13.0909 13.5455H13.0991C13.551 13.5455 13.9173 13.9118 13.9173 14.3636C13.9173 14.8155 13.551 15.1818 13.0991 15.1818H13.0909C12.639 15.1818 12.2727 14.8155 12.2727 14.3636ZM15.5455 14.3636C15.5455 13.9118 15.9118 13.5455 16.3636 13.5455H16.3718C16.8237 13.5455 17.19 13.9118 17.19 14.3636C17.19 14.8155 16.8237 15.1818 16.3718 15.1818H16.3636C15.9118 15.1818 15.5455 14.8155 15.5455 14.3636ZM18.8182 14.3636C18.8182 13.9118 19.1845 13.5455 19.6364 13.5455H19.6445C20.0964 13.5455 20.4627 13.9118 20.4627 14.3636C20.4627 14.8155 20.0964 15.1818 19.6445 15.1818H19.6364C19.1845 15.1818 18.8182 14.8155 18.8182 14.3636ZM12.2727 17.6364C12.2727 17.1845 12.639 16.8182 13.0909 16.8182H13.0991C13.551 16.8182 13.9173 17.1845 13.9173 17.6364C13.9173 18.0882 13.551 18.4545 13.0991 18.4545H13.0909C12.639 18.4545 12.2727 18.0882 12.2727 17.6364ZM15.5455 17.6364C15.5455 17.1845 15.9118 16.8182 16.3636 16.8182H16.3718C16.8237 16.8182 17.19 17.1845 17.19 17.6364C17.19 18.0882 16.8237 18.4545 16.3718 18.4545H16.3636C15.9118 18.4545 15.5455 18.0882 15.5455 17.6364ZM18.8182 17.6364C18.8182 17.1845 19.1845 16.8182 19.6364 16.8182H19.6445C20.0964 16.8182 20.4627 17.1845 20.4627 17.6364C20.4627 18.0882 20.0964 18.4545 19.6445 18.4545H19.6364C19.1845 18.4545 18.8182 18.0882 18.8182 17.6364Z" fill="black"/>
</svg>
