<svg width="18" height="17" viewBox="0 0 18 17" fill="none" xmlns="http://www.w3.org/2000/svg">
<path opacity="0.5" d="M16.7789 7.64319V14.6608C16.7789 15.2813 16.5266 15.8762 16.0776 16.3149C15.6284 16.7535 15.0194 17 14.3842 17H3.20912C2.57392 17 1.96494 16.7535 1.51575 16.3149C1.06675 15.8762 0.814453 15.2813 0.814453 14.6608V3.74451C0.814453 3.12402 1.06675 2.52915 1.51575 2.09036C1.96493 1.65176 2.57392 1.40531 3.20912 1.40531H8.79667C9.08192 1.40531 9.34543 1.55394 9.48797 1.79518C9.63051 2.03641 9.63051 2.33368 9.48797 2.57491C9.34543 2.81614 9.08191 2.96478 8.79667 2.96478H3.20912C2.99745 2.96478 2.79432 3.04693 2.64466 3.19313C2.495 3.33933 2.4109 3.53774 2.4109 3.74451V14.6608C2.4109 14.8676 2.495 15.066 2.64466 15.2122C2.79432 15.3584 2.99745 15.4405 3.20912 15.4405H14.3842C14.5959 15.4405 14.799 15.3584 14.9487 15.2122C15.0983 15.066 15.1824 14.8676 15.1824 14.6608V7.64319C15.1824 7.36453 15.3346 7.10713 15.5815 6.96789C15.8285 6.82865 16.1328 6.82865 16.3798 6.96789C16.6267 7.10713 16.7789 7.36454 16.7789 7.64319ZM17.1142 0.687953C17.5625 1.12656 17.8145 1.72112 17.8145 2.34108C17.8145 2.96104 17.5625 3.55559 17.1142 3.99421L9.21181 11.7136C9.1001 11.8213 8.95863 11.8944 8.80469 11.924L5.97903 12.4777H5.81938C5.57689 12.4825 5.34524 12.3793 5.18988 12.1973C5.0347 12.0152 4.97251 11.7742 5.02115 11.542L5.60376 8.80507C5.63405 8.65469 5.70906 8.51649 5.81936 8.40737L13.7217 0.687993C14.1709 0.247653 14.7813 0 15.418 0C16.0544 0 16.6649 0.247671 17.1142 0.687993L17.1142 0.687953ZM16.2201 2.34108C16.2192 2.13274 16.133 1.93329 15.9806 1.78742C15.8308 1.63983 15.6268 1.55681 15.4139 1.55681C15.2011 1.55681 14.9971 1.63983 14.8471 1.78742L7.11254 9.34283L6.83316 10.723L8.2461 10.4501L15.9806 2.88672C16.131 2.74278 16.2171 2.54663 16.2201 2.3409V2.34108Z" fill="#121212"/>
</svg>
