<svg width="33" height="32" viewBox="0 0 33 32" fill="none" xmlns="http://www.w3.org/2000/svg">
<rect x="0.5" width="32" height="32" rx="4" fill="#ECEFF1"/>
<path d="M21.9805 10.3086L20.9414 9.26953C20.6133 8.94141 20.1484 8.75 19.7109 8.75C19.2734 8.75 18.8086 8.94141 18.4805 9.26953L16.4297 11.3203L15.5 12.25L8.82812 18.9219L8.5 22.0391C8.44531 22.4219 8.74609 22.75 9.12891 22.75C9.15625 22.75 9.18359 22.75 9.21094 22.75L12.3281 22.4219L19 15.75L19.9297 14.8203L21.9805 12.7695C22.6641 12.0859 22.6641 10.9922 21.9805 10.3086ZM11.7266 21.1641L9.89453 21.3555L10.0859 19.5234L16.4023 13.1797L17.25 12.332L18.918 14L18.0703 14.8477L11.7266 21.1641ZM21.0508 11.8398L19.8477 13.0703L18.1797 11.4023L19.4102 10.1992C19.5195 10.0898 19.6562 10.0625 19.7109 10.0625C19.7656 10.0625 19.9023 10.0898 20.0117 10.1992L21.0508 11.2383C21.2148 11.4023 21.2148 11.6758 21.0508 11.8398Z" fill="#37474F"/>
</svg>
