<svg width="26" height="26" viewBox="0 0 26 26" fill="none" xmlns="http://www.w3.org/2000/svg">
<rect x="0.5" y="0.199219" width="25" height="25" rx="12.5" fill="#ECEFF1"/>
<path d="M9.46795 16.0324C9.49572 16.0324 9.5235 16.0297 9.55128 16.0255L11.8874 15.6158C11.9152 15.6102 11.9416 15.5977 11.961 15.5769L17.8485 9.68939C17.8614 9.67654 17.8716 9.66128 17.8786 9.64447C17.8855 9.62767 17.8891 9.60966 17.8891 9.59147C17.8891 9.57328 17.8855 9.55527 17.8786 9.53847C17.8716 9.52167 17.8614 9.5064 17.8485 9.49355L15.5402 7.18383C15.5138 7.15744 15.4791 7.14355 15.4416 7.14355C15.4041 7.14355 15.3693 7.15744 15.3429 7.18383L9.45545 13.0713C9.43461 13.0922 9.42211 13.1172 9.41656 13.1449L9.00684 15.4811C8.99332 15.5555 8.99815 15.632 9.0209 15.7042C9.04365 15.7763 9.08363 15.8418 9.13739 15.8949C9.22906 15.9838 9.34434 16.0324 9.46795 16.0324ZM10.4041 13.6102L15.4416 8.57411L16.4596 9.59217L11.4221 14.6283L10.1874 14.8463L10.4041 13.6102ZM18.111 17.1991H7.88878C7.64295 17.1991 7.44434 17.3977 7.44434 17.6436V18.1436C7.44434 18.2047 7.49434 18.2547 7.55545 18.2547H18.4443C18.5054 18.2547 18.5554 18.2047 18.5554 18.1436V17.6436C18.5554 17.3977 18.3568 17.1991 18.111 17.1991Z" fill="black"/>
</svg>
