<svg width="24" height="24" viewBox="0 0 24 24" fill="none" xmlns="http://www.w3.org/2000/svg">
<g clip-path="url(#clip0_3809_172478)">
<path fill-rule="evenodd" clip-rule="evenodd" d="M19.4636 3.2636C19.8151 2.91213 20.3849 2.91213 20.7364 3.2636C21.0879 3.61508 21.0879 4.18492 20.7364 4.5364L15.9728 9.3H19.2C19.6971 9.3 20.1 9.70294 20.1 10.2C20.1 10.6971 19.6971 11.1 19.2 11.1H13.8C13.3029 11.1 12.9 10.6971 12.9 10.2V4.8C12.9 4.30294 13.3029 3.9 13.8 3.9C14.2971 3.9 14.7 4.30294 14.7 4.8V8.02721L19.4636 3.2636ZM3.9 13.8C3.9 13.3029 4.30294 12.9 4.8 12.9H10.2C10.6971 12.9 11.1 13.3029 11.1 13.8V19.2C11.1 19.6971 10.6971 20.1 10.2 20.1C9.70294 20.1 9.3 19.6971 9.3 19.2V15.9728L4.5364 20.7364C4.18492 21.0879 3.61508 21.0879 3.2636 20.7364C2.91213 20.3849 2.91213 19.8151 3.2636 19.4636L8.02721 14.7H4.8C4.30294 14.7 3.9 14.2971 3.9 13.8Z" fill="#263238"/>
</g>
<defs>
<clipPath id="clip0_3809_172478">
<rect width="18" height="18" fill="white" transform="translate(3 3)"/>
</clipPath>
</defs>
</svg>
