<svg width="16" height="12" viewBox="0 0 16 12" fill="none" xmlns="http://www.w3.org/2000/svg">
<path d="M15.6094 11.0391L1.59375 0.09375C1.52344 0.046875 1.42969 0 1.35938 0C1.24219 0 1.125 0.0703125 1.05469 0.140625L0.820312 0.445312C0.773438 0.492188 0.726562 0.609375 0.726562 0.679688C0.726562 0.773438 0.796875 0.914062 0.890625 0.960938L14.9062 11.9297C14.9531 11.9766 15.0469 12 15.1406 12C15.2344 12 15.3516 11.9531 15.4219 11.8594L15.6562 11.5781C15.7031 11.5312 15.75 11.4141 15.75 11.3438C15.75 11.25 15.6797 11.1094 15.6094 11.0391ZM7.6875 3.44531L10.8516 5.90625C10.8047 4.5 9.65625 3.375 8.25 3.375C8.08594 3.39844 7.85156 3.42188 7.6875 3.44531ZM8.78906 8.57812L5.625 6.11719C5.67188 7.52344 6.82031 8.625 8.25 8.625C8.39062 8.625 8.625 8.60156 8.78906 8.57812ZM8.25 2.625C10.5469 2.625 12.6797 3.91406 13.8047 6C13.5703 6.44531 13.125 7.07812 12.7734 7.42969L13.6641 8.10938C14.0859 7.66406 14.625 6.89062 14.9062 6.35156C14.9531 6.25781 15 6.11719 15 6C15 5.90625 14.9531 5.76562 14.9062 5.67188C13.6406 3.1875 11.1094 1.5 8.25 1.5C7.38281 1.5 6.5625 1.66406 5.78906 1.94531L6.86719 2.8125C7.3125 2.69531 7.78125 2.625 8.25 2.625ZM8.25 9.375C5.92969 9.375 3.79688 8.08594 2.67188 6C2.90625 5.57812 3.35156 4.94531 3.70312 4.59375L2.8125 3.91406C2.39062 4.35938 1.85156 5.13281 1.57031 5.67188C1.52344 5.76562 1.5 5.90625 1.5 6.02344C1.5 6.11719 1.52344 6.25781 1.57031 6.35156C2.83594 8.83594 5.36719 10.5 8.25 10.5C9.09375 10.5 9.91406 10.3359 10.6875 10.0781L9.60938 9.21094C9.16406 9.32812 8.69531 9.375 8.25 9.375Z" fill="#EA3F47"/>
</svg>
