<svg width="14" height="15" viewBox="0 0 14 15" fill="none" xmlns="http://www.w3.org/2000/svg">
<path d="M7.69782 13.6933C7.81984 13.6335 7.92267 13.5407 7.99468 13.4254C8.0667 13.3102 8.10501 13.1771 8.1053 13.0412V9.12114C8.1053 8.92809 8.18267 8.7424 8.3212 8.60535L12.8314 4.14447C12.9681 4.00961 13.0766 3.84899 13.1507 3.67192C13.2248 3.49485 13.2631 3.30484 13.2632 3.11288V1.22949C13.2629 1.13318 13.2435 1.0379 13.2062 0.949087C13.169 0.860276 13.1146 0.779685 13.0461 0.711927C12.9777 0.644169 12.8965 0.590575 12.8074 0.554212C12.7182 0.517849 12.6227 0.499431 12.5264 0.500013H0.736818C0.329341 0.500013 -3.05176e-05 0.8257 -3.05176e-05 1.22949V3.11288C-3.05176e-05 3.49972 0.155444 3.87109 0.431763 4.14447L4.94201 8.60535C5.01035 8.67275 5.06462 8.75305 5.10168 8.84159C5.13874 8.93014 5.15785 9.02515 5.15791 9.12114V13.7707C5.15791 14.3122 5.73412 14.6645 6.22413 14.422L7.69782 13.6933Z" fill="#393939"/>
</svg>
