<svg width="21" height="19" viewBox="0 0 21 19" fill="none" xmlns="http://www.w3.org/2000/svg">
<path d="M17.1 8H8.4C7.572 8 7.5 8.6705 7.5 9.5C7.5 10.3295 7.572 11 8.4 11H17.1C17.928 11 18 10.3295 18 9.5C18 8.6705 17.928 8 17.1 8ZM20.1 15.5H8.4C7.572 15.5 7.5 16.1705 7.5 17C7.5 17.8295 7.572 18.5 8.4 18.5H20.1C20.928 18.5 21 17.8295 21 17C21 16.1705 20.928 15.5 20.1 15.5ZM8.4 3.5H20.1C20.928 3.5 21 2.8295 21 2C21 1.1705 20.928 0.5 20.1 0.5H8.4C7.572 0.5 7.5 1.1705 7.5 2C7.5 2.8295 7.572 3.5 8.4 3.5ZM3.6 8H0.9C0.0719999 8 0 8.6705 0 9.5C0 10.3295 0.0719999 11 0.9 11H3.6C4.428 11 4.5 10.3295 4.5 9.5C4.5 8.6705 4.428 8 3.6 8ZM3.6 15.5H0.9C0.0719999 15.5 0 16.1705 0 17C0 17.8295 0.0719999 18.5 0.9 18.5H3.6C4.428 18.5 4.5 17.8295 4.5 17C4.5 16.1705 4.428 15.5 3.6 15.5ZM3.6 0.5H0.9C0.0719999 0.5 0 1.1705 0 2C0 2.8295 0.0719999 3.5 0.9 3.5H3.6C4.428 3.5 4.5 2.8295 4.5 2C4.5 1.1705 4.428 0.5 3.6 0.5Z" fill="black"/>
</svg>
