<svg width="13" height="13" viewBox="0 0 13 13" fill="none" xmlns="http://www.w3.org/2000/svg">
<path d="M6.5 0.6875C3.28906 0.6875 0.6875 3.3125 0.6875 6.5C0.6875 9.71094 3.28906 12.3125 6.5 12.3125C9.6875 12.3125 12.3125 9.71094 12.3125 6.5C12.3125 3.3125 9.6875 0.6875 6.5 0.6875ZM6.5 3.26562C7.03906 3.26562 7.48438 3.71094 7.48438 4.25C7.48438 4.8125 7.03906 5.23438 6.5 5.23438C5.9375 5.23438 5.51562 4.8125 5.51562 4.25C5.51562 3.71094 5.9375 3.26562 6.5 3.26562ZM7.8125 9.21875C7.8125 9.38281 7.67188 9.5 7.53125 9.5H5.46875C5.30469 9.5 5.1875 9.38281 5.1875 9.21875V8.65625C5.1875 8.51562 5.30469 8.375 5.46875 8.375H5.75V6.875H5.46875C5.30469 6.875 5.1875 6.75781 5.1875 6.59375V6.03125C5.1875 5.89062 5.30469 5.75 5.46875 5.75H6.96875C7.10938 5.75 7.25 5.89062 7.25 6.03125V8.375H7.53125C7.67188 8.375 7.8125 8.51562 7.8125 8.65625V9.21875Z" fill="#EA3F47"/>
</svg>
