<svg width="132" height="131" viewBox="0 0 132 131" fill="none" xmlns="http://www.w3.org/2000/svg">
<path d="M31.3395 30.6923C26.7115 35.2341 23.0284 40.6472 20.5027 46.6195C17.977 52.5918 16.6587 59.005 16.6238 65.4892C16.5888 71.9735 17.838 78.4005 20.2992 84.3997C22.7603 90.3988 26.3849 95.8513 30.9637 100.443C35.5425 105.034 40.9851 108.674 46.9774 111.151C52.9697 113.629 59.3933 114.896 65.8777 114.879C72.362 114.862 78.7788 113.561 84.758 111.052C90.7372 108.542 96.1604 104.874 100.715 100.259M109.907 87.5517C114.552 78.3183 116.167 67.8549 114.521 57.6507C112.875 47.4465 108.052 38.0214 100.739 30.717C93.4261 23.4125 83.9955 18.6007 73.7894 16.9665C63.5833 15.3324 53.1217 16.9591 43.8937 21.6151M66 16.3751V38.2084M66 114.625V98.2501M16.875 65.5001H38.7083M115.125 65.5001H98.75M66 65.5001V65.5546M16.875 16.3751L115.125 114.625" stroke="#B8B8B8" stroke-width="10.2344" stroke-linecap="round" stroke-linejoin="round"/>
<path d="M31.3395 30.6923C26.7115 35.2341 23.0284 40.6472 20.5027 46.6195C17.977 52.5918 16.6587 59.005 16.6238 65.4892C16.5888 71.9735 17.838 78.4005 20.2992 84.3997C22.7603 90.3988 26.3849 95.8513 30.9637 100.443C35.5425 105.034 40.9851 108.674 46.9774 111.151C52.9697 113.629 59.3933 114.896 65.8777 114.879C72.362 114.862 78.7788 113.561 84.758 111.052C90.7372 108.542 96.1604 104.874 100.715 100.259M109.907 87.5517C114.552 78.3183 116.167 67.8549 114.521 57.6507C112.875 47.4465 108.052 38.0214 100.739 30.717C93.4261 23.4125 83.9955 18.6007 73.7894 16.9665C63.5833 15.3324 53.1217 16.9591 43.8937 21.6151M66 16.3751V38.2084M66 114.625V98.2501M16.875 65.5001H38.7083M115.125 65.5001H98.75M66 65.5001V65.5546M16.875 16.3751L115.125 114.625" stroke="black" stroke-opacity="0.2" stroke-width="10.2344" stroke-linecap="round" stroke-linejoin="round"/>
</svg>
