<svg width="25" height="27" viewBox="0 0 25 27" fill="none" xmlns="http://www.w3.org/2000/svg">
<rect x="0.5" y="0.75" width="24.5" height="25.5" rx="12.25" fill="#ECEFF1"/>
<path d="M7.25 14.25C7.66421 14.25 8 13.9142 8 13.5C8 13.0858 7.66421 12.75 7.25 12.75C6.83579 12.75 6.5 13.0858 6.5 13.5C6.5 13.9142 6.83579 14.25 7.25 14.25Z" stroke="black" stroke-width="1.5" stroke-linecap="round" stroke-linejoin="round"/>
<path d="M12.75 14.25C13.1642 14.25 13.5 13.9142 13.5 13.5C13.5 13.0858 13.1642 12.75 12.75 12.75C12.3358 12.75 12 13.0858 12 13.5C12 13.9142 12.3358 14.25 12.75 14.25Z" stroke="black" stroke-width="1.5" stroke-linecap="round" stroke-linejoin="round"/>
<path d="M18.25 14.25C18.6642 14.25 19 13.9142 19 13.5C19 13.0858 18.6642 12.75 18.25 12.75C17.8358 12.75 17.5 13.0858 17.5 13.5C17.5 13.9142 17.8358 14.25 18.25 14.25Z" stroke="black" stroke-width="1.5" stroke-linecap="round" stroke-linejoin="round"/>
</svg>
