<svg width="37" height="30" viewBox="0 0 37 30" fill="none" xmlns="http://www.w3.org/2000/svg">
<path d="M12.7559 27.5H29.7263C30.3692 27.5 30.9859 27.2366 31.4405 26.7678C31.8952 26.2989 32.1506 25.663 32.1506 25V9.375L25.4837 2.5H15.1802C14.5372 2.5 13.9206 2.76339 13.4659 3.23223C13.0113 3.70107 12.7559 4.33696 12.7559 5V10" stroke="black" stroke-width="2" stroke-linecap="round" stroke-linejoin="round"/>
<mask id="path-2-inside-1_2588_218648" fill="white">
<path d="M24.8779 2.5V10H32.151"/>
</mask>
<path d="M28.8779 2.5C28.8779 0.290861 27.0871 -1.5 24.8779 -1.5C22.6688 -1.5 20.8779 0.290861 20.8779 2.5H28.8779ZM24.8779 10H20.8779C20.8779 12.2091 22.6688 14 24.8779 14V10ZM32.151 14C34.3601 14 36.151 12.2091 36.151 10C36.151 7.79086 34.3601 6 32.151 6V14ZM20.8779 2.5V10H28.8779V2.5H20.8779ZM24.8779 14H32.151V6H24.8779V14Z" fill="black" mask="url(#path-2-inside-1_2588_218648)"/>
<path d="M0.82 21H2.15V18.28H3.15C4.68 18.28 5.77 17.61 5.77 16.1V16.06C5.77 14.56 4.72 13.85 3.12 13.85H0.82V21ZM2.15 17.32V14.88H3.12C3.97 14.88 4.47 15.21 4.47 16.06V16.1C4.47 16.89 4 17.32 3.12 17.32H2.15ZM6.81375 21H8.96375C11.4738 21 12.6838 19.52 12.6838 17.44V17.35C12.6838 15.27 11.4738 13.85 8.98375 13.85H6.81375V21ZM8.14375 19.95V14.9H8.91375C10.5938 14.9 11.2938 15.83 11.2938 17.37V17.45C11.2938 19.03 10.5238 19.95 8.92375 19.95H8.14375ZM13.8524 21H15.1824V18.07H17.6224V17.04H15.1824V14.91H18.2824V13.85H13.8524V21Z" fill="#EA3F47"/>
</svg>
