<svg width="34" height="27" viewBox="0 0 34 27" fill="none" xmlns="http://www.w3.org/2000/svg">
<path d="M12.7559 26H29.7263C30.3692 26 30.9859 25.7366 31.4405 25.2678C31.8952 24.7989 32.1506 24.163 32.1506 23.5V7.875L25.4837 1H15.1802C14.5372 1 13.9206 1.26339 13.4659 1.73223C13.0113 2.20107 12.7559 2.83696 12.7559 3.5V8.5" stroke="black" stroke-width="2" stroke-linecap="round" stroke-linejoin="round"/>
<mask id="path-2-inside-1_4107_223331" fill="white">
<path d="M24.8774 1V8.5H32.1505"/>
</mask>
<path d="M28.8774 1C28.8774 -1.20914 27.0866 -3 24.8774 -3C22.6683 -3 20.8774 -1.20914 20.8774 1H28.8774ZM24.8774 8.5H20.8774C20.8774 10.7091 22.6683 12.5 24.8774 12.5V8.5ZM32.1505 12.5C34.3596 12.5 36.1505 10.7091 36.1505 8.5C36.1505 6.29086 34.3596 4.5 32.1505 4.5V12.5ZM20.8774 1V8.5H28.8774V1H20.8774ZM24.8774 12.5H32.1505V4.5H24.8774V12.5Z" fill="black" mask="url(#path-2-inside-1_4107_223331)"/>
<path d="M0.82 19.5H2.15V16.78H3.15C4.68 16.78 5.77 16.11 5.77 14.6V14.56C5.77 13.06 4.72 12.35 3.12 12.35H0.82V19.5ZM2.15 15.82V13.38H3.12C3.97 13.38 4.47 13.71 4.47 14.56V14.6C4.47 15.39 4 15.82 3.12 15.82H2.15ZM6.81375 19.5H8.96375C11.4738 19.5 12.6838 18.02 12.6838 15.94V15.85C12.6838 13.77 11.4738 12.35 8.98375 12.35H6.81375V19.5ZM8.14375 18.45V13.4H8.91375C10.5938 13.4 11.2938 14.33 11.2938 15.87V15.95C11.2938 17.53 10.5238 18.45 8.92375 18.45H8.14375ZM13.8524 19.5H15.1824V16.57H17.6224V15.54H15.1824V13.41H18.2824V12.35H13.8524V19.5Z" fill="#EA3F47"/>
</svg>
