<svg width="37" height="31" viewBox="0 0 37 31" fill="none" xmlns="http://www.w3.org/2000/svg">
<path d="M12.7559 28.1553H29.7263C30.3692 28.1553 30.9859 27.8919 31.4405 27.423C31.8952 26.9542 32.1506 26.3183 32.1506 25.6553V10.0303L25.4837 3.15527H15.1802C14.5372 3.15527 13.9206 3.41867 13.4659 3.88751C13.0113 4.35635 12.7559 4.99223 12.7559 5.65527V10.6553" stroke="black" stroke-width="2" stroke-linecap="round" stroke-linejoin="round"/>
<mask id="path-2-inside-1_2588_219853" fill="white">
<path d="M24.8779 3.15527V10.6553H32.151"/>
</mask>
<path d="M28.8779 3.15527C28.8779 0.946134 27.0871 -0.844727 24.8779 -0.844727C22.6688 -0.844727 20.8779 0.946134 20.8779 3.15527H28.8779ZM24.8779 10.6553H20.8779C20.8779 12.8644 22.6688 14.6553 24.8779 14.6553V10.6553ZM32.151 14.6553C34.3601 14.6553 36.151 12.8644 36.151 10.6553C36.151 8.44613 34.3601 6.65527 32.151 6.65527V14.6553ZM20.8779 3.15527V10.6553H28.8779V3.15527H20.8779ZM24.8779 14.6553H32.151V6.65527H24.8779V14.6553Z" fill="black" mask="url(#path-2-inside-1_2588_219853)"/>
<path d="M0.82 21.6553H2.15V18.9353H3.15C4.68 18.9353 5.77 18.2653 5.77 16.7553V16.7153C5.77 15.2153 4.72 14.5053 3.12 14.5053H0.82V21.6553ZM2.15 17.9753V15.5353H3.12C3.97 15.5353 4.47 15.8653 4.47 16.7153V16.7553C4.47 17.5453 4 17.9753 3.12 17.9753H2.15ZM6.81375 21.6553H8.96375C11.4738 21.6553 12.6838 20.1753 12.6838 18.0953V18.0053C12.6838 15.9253 11.4738 14.5053 8.98375 14.5053H6.81375V21.6553ZM8.14375 20.6053V15.5553H8.91375C10.5938 15.5553 11.2938 16.4853 11.2938 18.0253V18.1053C11.2938 19.6853 10.5238 20.6053 8.92375 20.6053H8.14375ZM13.8524 21.6553H15.1824V18.7253H17.6224V17.6953H15.1824V15.5653H18.2824V14.5053H13.8524V21.6553Z" fill="#EA3F47"/>
</svg>
