<svg width="16" height="15" viewBox="0 0 16 15" fill="none" xmlns="http://www.w3.org/2000/svg">
<rect x="0.757812" width="15" height="15" rx="7.5" fill="white" fill-opacity="0.4"/>
<path d="M6.13799 9.49984C6.15466 9.49984 6.17133 9.49817 6.18799 9.49567L7.58966 9.24984C7.60633 9.2465 7.62216 9.239 7.63383 9.2265L11.1663 5.694C11.1741 5.68629 11.1802 5.67714 11.1844 5.66706C11.1885 5.65697 11.1907 5.64617 11.1907 5.63525C11.1907 5.62434 11.1885 5.61353 11.1844 5.60345C11.1802 5.59337 11.1741 5.58421 11.1663 5.5765L9.78133 4.19067C9.7655 4.17484 9.74466 4.1665 9.72216 4.1665C9.69966 4.1665 9.67883 4.17484 9.663 4.19067L6.13049 7.72317C6.11799 7.73567 6.11049 7.75067 6.10716 7.76734L5.86133 9.169C5.85322 9.21365 5.85612 9.25959 5.86977 9.30286C5.88342 9.34613 5.90741 9.38543 5.93966 9.41734C5.99466 9.47067 6.06383 9.49984 6.13799 9.49984V9.49984ZM6.69966 8.0465L9.72216 5.02484L10.333 5.63567L7.31049 8.65734L6.56966 8.78817L6.69966 8.0465V8.0465ZM11.3238 10.1998H5.19049C5.04299 10.1998 4.92383 10.319 4.92383 10.4665V10.7665C4.92383 10.8032 4.95383 10.8332 4.99049 10.8332H11.5238C11.5605 10.8332 11.5905 10.8032 11.5905 10.7665V10.4665C11.5905 10.319 11.4713 10.1998 11.3238 10.1998Z" fill="white"/>
</svg>
