<svg width="8" height="9" viewBox="0 0 8 9" fill="none" xmlns="http://www.w3.org/2000/svg">
<path fill-rule="evenodd" clip-rule="evenodd" d="M4.28338 1.11562C4.69699 0.716135 5.25097 0.495086 5.82598 0.500083C6.401 0.50508 6.95105 0.735722 7.35766 1.14234C7.76428 1.54895 7.99492 2.099 7.99992 2.67401C8.00491 3.24903 7.78386 3.803 7.38438 4.21662L7.37993 4.22115L6.28344 5.31764C6.28342 5.31766 6.28345 5.31763 6.28344 5.31764C6.06112 5.54003 5.79353 5.71205 5.49891 5.82195C5.20427 5.93186 4.88943 5.97712 4.57576 5.95466C4.26209 5.93219 3.95692 5.84253 3.68094 5.69175C3.40497 5.54098 3.16465 5.33261 2.97629 5.08079C2.85537 4.91914 2.88839 4.69008 3.05004 4.56917C3.21169 4.44825 3.44075 4.48127 3.56167 4.64292C3.68724 4.8108 3.84745 4.94971 4.03144 5.05023C4.21542 5.15075 4.41887 5.21052 4.62798 5.2255C4.83709 5.24048 5.04698 5.2103 5.24341 5.13703C5.43984 5.06376 5.61821 4.9491 5.76643 4.80082L6.86066 3.7066C7.12566 3.43109 7.27224 3.0627 7.26892 2.68037C7.26559 2.29702 7.11183 1.93032 6.84075 1.65925C6.56968 1.38817 6.20298 1.23441 5.81963 1.23108C5.43712 1.22775 5.06857 1.37448 4.79302 1.63971L4.16632 2.26276C4.02317 2.40509 3.79174 2.40441 3.64941 2.26126C3.50709 2.1181 3.50776 1.88667 3.65092 1.74435L4.2796 1.11932L4.28338 1.11562ZM2.50109 3.17074C2.79573 3.06083 3.11057 3.01557 3.42424 3.03803C3.73791 3.0605 4.04308 3.15016 4.31906 3.30094C4.59503 3.45171 4.83535 3.66008 5.02371 3.9119C5.14463 4.07355 5.1116 4.30261 4.94996 4.42352C4.78831 4.54444 4.55925 4.51141 4.43833 4.34977C4.31276 4.18189 4.15255 4.04298 3.96856 3.94246C3.78458 3.84194 3.58113 3.78217 3.37202 3.76719C3.1629 3.75221 2.95302 3.78238 2.75659 3.85566C2.56016 3.92893 2.38179 4.04359 2.23357 4.19187L1.13936 5.28608C0.874346 5.56159 0.727756 5.92998 0.731079 6.31232C0.73441 6.69567 0.888172 7.06237 1.15925 7.33344C1.43032 7.60452 1.79702 7.75828 2.18037 7.76161C2.56271 7.76493 2.9311 7.61834 3.20662 7.35333L3.82927 6.73068C3.97201 6.58794 4.20344 6.58794 4.34618 6.73068C4.48892 6.87342 4.48892 7.10485 4.34618 7.24759L3.72115 7.87262L3.71662 7.87707C3.303 8.27655 2.74903 8.4976 2.17401 8.49261C1.599 8.48761 1.04895 8.25697 0.642336 7.85035C0.235723 7.44374 0.00507963 6.89369 8.29037e-05 6.31868C-0.00491383 5.74366 0.216135 5.18968 0.615621 4.77607L0.620073 4.77154L1.71656 3.67505C1.71658 3.67503 1.71655 3.67506 1.71656 3.67505C1.93888 3.45266 2.20647 3.28064 2.50109 3.17074Z" fill="#EA3F47"/>
</svg>
