<svg width="40" height="40" viewBox="0 0 40 40" fill="none" xmlns="http://www.w3.org/2000/svg">
<path d="M27.2929 28.7071C27.6834 29.0976 28.3166 29.0976 28.7071 28.7071C29.0976 28.3166 29.0976 27.6834 28.7071 27.2929L27.2929 28.7071ZM25 18.5C25 22.0899 22.0899 25 18.5 25V27C23.1944 27 27 23.1944 27 18.5H25ZM18.5 25C14.9101 25 12 22.0899 12 18.5H10C10 23.1944 13.8056 27 18.5 27V25ZM12 18.5C12 14.9101 14.9101 12 18.5 12V10C13.8056 10 10 13.8056 10 18.5H12ZM18.5 12C22.0899 12 25 14.9101 25 18.5H27C27 13.8056 23.1944 10 18.5 10V12ZM28.7071 27.2929L24.5195 23.1053L23.1053 24.5195L27.2929 28.7071L28.7071 27.2929Z" fill="black"/>
<rect x="0.5" y="0.5" width="39" height="39" rx="19.5" stroke="black"/>
</svg>
