<svg width="12" height="12" viewBox="0 0 12 12" fill="none" xmlns="http://www.w3.org/2000/svg">
<path fill-rule="evenodd" clip-rule="evenodd" d="M0.599636 0C0.930806 0 1.19927 0.268466 1.19927 0.599636V2.25142L1.99908 1.53159C3.00181 0.635898 4.27648 0.103194 5.61837 0.019028C6.96026 -0.0651379 8.29149 0.304121 9.39829 1.0675C10.5051 1.83088 11.3232 2.94409 11.7213 4.22834C12.1193 5.51258 12.0742 6.89335 11.5932 8.14889C11.1122 9.40442 10.2232 10.4619 9.06893 11.1514C7.91468 11.8409 6.56218 12.1225 5.22865 11.951C3.89511 11.7794 2.65792 11.1647 1.71577 10.2055C0.773624 9.24624 0.181186 7.99822 0.033605 6.66182C-0.0027457 6.33265 0.23463 6.03634 0.563799 5.99998C0.892968 5.96363 1.18928 6.20101 1.22563 6.53018C1.3437 7.5993 1.81765 8.59772 2.57137 9.3651C3.32508 10.1325 4.31484 10.6243 5.38166 10.7615C6.44849 10.8988 7.53049 10.6735 8.45389 10.1218C9.37729 9.57022 10.0885 8.72426 10.4733 7.71983C10.8581 6.71541 10.8942 5.61079 10.5758 4.5834C10.2573 3.556 9.60281 2.66543 8.71738 2.05473C7.83194 1.44402 6.76695 1.14862 5.69344 1.21595C4.62029 1.28326 3.60088 1.70916 2.79881 2.42529C2.79855 2.42553 2.79828 2.42576 2.79801 2.426L2.16226 2.99818H3.59782C3.92899 2.99818 4.19745 3.26665 4.19745 3.59782C4.19745 3.92899 3.92899 4.19745 3.59782 4.19745H0.599636C0.268466 4.19745 0 3.92899 0 3.59782V0.599636C0 0.268466 0.268466 0 0.599636 0ZM5.99636 2.39854C6.32753 2.39854 6.596 2.66701 6.596 2.99818V5.62577L8.66307 6.6593C8.95928 6.80741 9.07934 7.16759 8.93124 7.4638C8.78313 7.76001 8.42295 7.88007 8.12674 7.73196L5.7282 6.53269C5.52505 6.43112 5.39673 6.22349 5.39673 5.99636V2.99818C5.39673 2.66701 5.66519 2.39854 5.99636 2.39854Z" fill="#37474F"/>
</svg>
