<svg width="15" height="15" viewBox="0 0 15 15" fill="none" xmlns="http://www.w3.org/2000/svg">
<path d="M0.9375 0.96875C0.746094 0.96875 0.609375 1.13281 0.609375 1.29688V6.54688C0.609375 6.73828 0.746094 6.875 0.9375 6.875H6.1875C6.35156 6.875 6.51562 6.73828 6.51562 6.54688V5.80859C6.51562 5.61719 6.35156 5.48047 6.16016 5.48047L2.71484 5.5625C3.5625 3.70312 5.42188 2.39062 7.60938 2.39062C10.5625 2.39062 12.9688 4.79688 12.9688 7.75C12.9688 10.7305 10.5625 13.1094 7.60938 13.1094C6.21484 13.1094 4.98438 12.6172 4.02734 11.7695C3.89062 11.6602 3.69922 11.6602 3.58984 11.7695L3.04297 12.3164C2.90625 12.4531 2.90625 12.6719 3.04297 12.8086C4.24609 13.875 5.85938 14.5312 7.60938 14.5312C11.3281 14.5312 14.3633 11.5234 14.3906 7.77734C14.3906 4.05859 11.3555 0.996094 7.60938 0.996094C5.25781 0.96875 3.15234 2.17188 1.94922 4.00391L2.00391 1.32422C2.00391 1.13281 1.86719 0.96875 1.67578 0.96875H0.9375Z" fill="#37474F"/>
</svg>
