<svg width="14" height="16" viewBox="0 0 14 16" fill="none" xmlns="http://www.w3.org/2000/svg">
<path d="M7.73412 0.837927L13.3723 3.81835C14.2092 4.26039 14.2092 5.45932 13.3723 5.90057L12.372 6.42976L13.3723 6.95895C14.2092 7.40099 14.2092 8.59992 13.3723 9.04117L12.372 9.57036L13.3723 10.0996C14.2092 10.5416 14.2092 11.7405 13.3723 12.1818L7.73412 15.1622C7.50791 15.2818 7.25589 15.3444 7 15.3444C6.74411 15.3444 6.49209 15.2818 6.26589 15.1622L0.627727 12.1818C-0.209242 11.7397 -0.209242 10.5416 0.627727 10.0996L1.62879 9.57036L0.627727 9.04117C-0.209242 8.59913 -0.209242 7.40099 0.627727 6.95895L1.62879 6.42976L0.627727 5.90057C-0.209242 5.45853 -0.209242 4.26039 0.627727 3.81835L6.26589 0.837927C6.49209 0.718298 6.74411 0.655762 7 0.655762C7.25589 0.655762 7.50791 0.718298 7.73412 0.837927ZM10.6918 10.4584L7.73412 12.0216C7.50791 12.1412 7.25589 12.2038 7 12.2038C6.74411 12.2038 6.49209 12.1412 6.26589 12.0216L3.30823 10.4591L2.01823 11.1407L7 13.7741L11.9826 11.1407L10.6918 10.4584ZM10.6918 7.31777L7.73412 8.88178C7.52899 8.9901 7.30242 9.05163 7.07068 9.06195C6.83895 9.07227 6.6078 9.03112 6.39386 8.94146L6.26589 8.88178L3.30823 7.31777L2.01823 8.00085L7 10.6327L11.9826 8.00006L10.6918 7.31777ZM7 2.22607L2.01823 4.85946L7 7.49285L11.9826 4.85946L7 2.22607Z" fill="black"/>
</svg>
