<svg width="13" height="16" viewBox="0 0 13 16" fill="none" xmlns="http://www.w3.org/2000/svg">
<path d="M3.66667 9.99967H8.33333M3.66667 11.9997H6M11 1.33301H1.66667C1.48986 1.33301 1.32029 1.40325 1.19526 1.52827C1.07024 1.65329 1 1.82286 1 1.99967V13.9997C1 14.1765 1.07024 14.3461 1.19526 14.4711C1.32029 14.5961 1.48986 14.6663 1.66667 14.6663H11C11.1768 14.6663 11.3464 14.5961 11.4714 14.4711C11.5964 14.3461 11.6667 14.1765 11.6667 13.9997V1.99967C11.6667 1.82286 11.5964 1.65329 11.4714 1.52827C11.3464 1.40325 11.1768 1.33301 11 1.33301V1.33301Z" stroke="#8C8C8C" stroke-linecap="round" stroke-linejoin="round"/>
<path d="M3.66667 4H8.33334V7.33333H3.66667V4Z" stroke="#8C8C8C" stroke-linecap="round" stroke-linejoin="round"/>
</svg>
