<svg width="19" height="21" viewBox="0 0 19 21" fill="none" xmlns="http://www.w3.org/2000/svg">
<g filter="url(#filter0_d_3258_83990)">
<path d="M13.375 2H12.25V0.78125C12.25 0.640625 12.1094 0.5 11.9688 0.5H11.0312C10.8672 0.5 10.75 0.640625 10.75 0.78125V2H7.75V0.78125C7.75 0.640625 7.60938 0.5 7.46875 0.5H6.53125C6.36719 0.5 6.25 0.640625 6.25 0.78125V2H5.125C4.49219 2 4 2.51562 4 3.125V11.375C4 12.0078 4.49219 12.5 5.125 12.5H13.375C13.9844 12.5 14.5 12.0078 14.5 11.375V3.125C14.5 2.51562 13.9844 2 13.375 2ZM13.2344 11.375H5.26562C5.17188 11.375 5.125 11.3281 5.125 11.2344V4.25H13.375V11.2344C13.375 11.3281 13.3047 11.375 13.2344 11.375Z" fill="#EA3F47"/>
</g>
<defs>
<filter id="filter0_d_3258_83990" x="0" y="0.5" width="18.5" height="20" filterUnits="userSpaceOnUse" color-interpolation-filters="sRGB">
<feFlood flood-opacity="0" result="BackgroundImageFix"/>
<feColorMatrix in="SourceAlpha" type="matrix" values="0 0 0 0 0 0 0 0 0 0 0 0 0 0 0 0 0 0 127 0" result="hardAlpha"/>
<feOffset dy="4"/>
<feGaussianBlur stdDeviation="2"/>
<feComposite in2="hardAlpha" operator="out"/>
<feColorMatrix type="matrix" values="0 0 0 0 0 0 0 0 0 0 0 0 0 0 0 0 0 0 0.25 0"/>
<feBlend mode="normal" in2="BackgroundImageFix" result="effect1_dropShadow_3258_83990"/>
<feBlend mode="normal" in="SourceGraphic" in2="effect1_dropShadow_3258_83990" result="shape"/>
</filter>
</defs>
</svg>
