<svg width="32" height="32" viewBox="0 0 32 32" fill="none" xmlns="http://www.w3.org/2000/svg">
<rect width="32" height="32" rx="16" fill="#E0E0E0"/>
<path d="M21.6036 10.325C20.1071 8.825 18.1143 8 15.9964 8C11.625 8 8.06786 11.5571 8.06786 15.9286C8.06786 17.325 8.43214 18.6893 9.125 19.8929L8 24L12.2036 22.8964C13.3607 23.5286 14.6643 23.8607 15.9929 23.8607H15.9964C20.3643 23.8607 24 20.3036 24 15.9321C24 13.8143 23.1 11.825 21.6036 10.325ZM15.9964 22.525C14.8107 22.525 13.65 22.2071 12.6393 21.6071L12.4 21.4643L9.90714 22.1179L10.5714 19.6857L10.4143 19.4357C9.75357 18.3857 9.40714 17.175 9.40714 15.9286C9.40714 12.2964 12.3643 9.33929 16 9.33929C17.7607 9.33929 19.4143 10.025 20.6571 11.2714C21.9 12.5179 22.6643 14.1714 22.6607 15.9321C22.6607 19.5679 19.6286 22.525 15.9964 22.525Z" fill="#121212"/>
<path fill-rule="evenodd" clip-rule="evenodd" d="M15.8341 16.4513L13.1847 16.4513V15.9705L15.8341 15.9705L15.8341 13.3211L16.3149 13.3211L16.3149 15.9705L18.9643 15.9705V16.4513L16.3149 16.4513L16.3149 19.1007L15.8341 19.1007L15.8341 16.4513Z" fill="#263238"/>
</svg>
