<svg width="17" height="13" viewBox="0 0 17 13" fill="none" xmlns="http://www.w3.org/2000/svg">
<rect x="0.505859" width="16.2953" height="13" rx="2" fill="#EF3F43" fill-opacity="0.5"/>
<path d="M10.6082 10.1283H8.39603C8.12906 10.1283 7.90025 9.91493 7.90025 9.6659C7.90025 9.41687 8.12905 9.20345 8.39603 9.20345L10.6082 9.20333C11.2757 9.20333 11.8096 8.70527 11.8096 8.08267C11.8096 7.46004 11.2757 6.96201 10.6082 6.96201L6.69884 6.96214C5.4974 6.96214 4.50586 6.055 4.50586 4.91662C4.50586 3.79596 5.47839 2.87109 6.69884 2.87109H7.99553C8.2625 2.87109 8.49131 3.08451 8.49131 3.33354C8.49131 3.58256 8.26251 3.79599 7.99553 3.79599H6.69884C6.03132 3.79599 5.4974 4.29405 5.4974 4.91665C5.4974 5.53925 6.03135 6.03731 6.69884 6.03731L10.6082 6.03718C11.8096 6.03718 12.8012 6.94432 12.8012 8.0827C12.8012 9.22124 11.8096 10.1284 10.6082 10.1284V10.1283Z" fill="white"/>
</svg>
