<svg width="228" height="126" viewBox="0 0 228 126" fill="none" xmlns="http://www.w3.org/2000/svg">
<rect x="0.5" width="227.5" height="126" rx="8" fill="#ECEFF1"/>
<path d="M106.885 58.082C107.853 58.082 108.812 57.8913 109.707 57.5206C110.602 57.15 111.415 56.6068 112.1 55.9219C112.784 55.2371 113.328 54.4241 113.698 53.5293C114.069 52.6345 114.26 51.6755 114.26 50.707C114.26 49.7385 114.069 48.7795 113.698 47.8847C113.328 46.99 112.784 46.1769 112.1 45.4921C111.415 44.8073 110.602 44.264 109.707 43.8934C108.812 43.5228 107.853 43.332 106.885 43.332C104.929 43.332 103.053 44.109 101.67 45.4921C100.287 46.8752 99.5096 48.7511 99.5096 50.707C99.5096 52.663 100.287 54.5389 101.67 55.9219C103.053 57.305 104.929 58.082 106.885 58.082Z" fill="#B0B0B0"/>
<path d="M143.75 92.4993C143.75 95.1073 142.714 97.6085 140.87 99.4526C139.026 101.297 136.525 102.333 133.917 102.333H94.5833C91.9754 102.333 89.4742 101.297 87.6301 99.4526C85.786 97.6085 84.75 95.1073 84.75 92.4993V33.4993C84.75 30.8914 85.786 28.3902 87.6301 26.5461C89.4742 24.702 91.9754 23.666 94.5833 23.666H121.625L143.75 45.791V92.4993ZM94.5833 28.5827C93.2794 28.5827 92.0288 29.1007 91.1067 30.0227C90.1847 30.9448 89.6667 32.1954 89.6667 33.4993V82.666L100.601 71.7313C100.989 71.3448 101.494 71.0986 102.038 71.0318C102.581 70.965 103.131 71.0814 103.601 71.3626L114.25 77.7493L124.855 62.901C125.063 62.6108 125.331 62.3692 125.641 62.1931C125.951 62.017 126.296 61.9104 126.652 61.881C127.007 61.8515 127.365 61.8998 127.7 62.0224C128.035 62.1451 128.339 62.3392 128.592 62.5913L138.833 72.8327V45.791H129C127.044 45.791 125.168 45.014 123.785 43.6309C122.402 42.2478 121.625 40.372 121.625 38.416V28.5827H94.5833Z" fill="#B0B0B0"/>
</svg>
