<svg width="15" height="15" viewBox="0 0 15 15" fill="none" xmlns="http://www.w3.org/2000/svg">
<path d="M13.9805 2.30859L12.9414 1.26953C12.6133 0.941406 12.1484 0.75 11.7109 0.75C11.2734 0.75 10.8086 0.941406 10.4805 1.26953L8.42969 3.32031L7.5 4.25L0.828125 10.9219L0.5 14.0391C0.445312 14.4219 0.746094 14.75 1.12891 14.75C1.15625 14.75 1.18359 14.75 1.21094 14.75L4.32812 14.4219L11 7.75L11.9297 6.82031L13.9805 4.76953C14.6641 4.08594 14.6641 2.99219 13.9805 2.30859ZM3.72656 13.1641L1.89453 13.3555L2.08594 11.5234L8.40234 5.17969L9.25 4.33203L10.918 6L10.0703 6.84766L3.72656 13.1641ZM13.0508 3.83984L11.8477 5.07031L10.1797 3.40234L11.4102 2.19922C11.5195 2.08984 11.6562 2.0625 11.7109 2.0625C11.7656 2.0625 11.9023 2.08984 12.0117 2.19922L13.0508 3.23828C13.2148 3.40234 13.2148 3.67578 13.0508 3.83984Z" fill="#37474F"/>
</svg>
